<svg xmlns="http://www.w3.org/2000/svg" width="32" height="28" viewBox="0 0 32 28">
  <defs>
    <style>
      .cls-1 {
        fill: #fff;
        fill-rule: evenodd;
      }
    </style>
  </defs>
  <path id="Icon-Burger-Menu" class="cls-1" d="M48,76.5A2.506,2.506,0,0,1,50.5,74h7a2.5,2.5,0,1,1,0,5h-7A2.494,2.494,0,0,1,48,76.5ZM48,65a2.5,2.5,0,0,1,2.5-2.5h17a2.5,2.5,0,1,1,0,5h-17A2.5,2.5,0,0,1,48,65Zm0-11.5A2.5,2.5,0,0,1,50.5,51h27a2.5,2.5,0,0,1,0,5h-27A2.493,2.493,0,0,1,48,53.5Z" transform="translate(-48 -51)"/>
</svg>
