<svg xmlns="http://www.w3.org/2000/svg" width="30.25" height="25.032" viewBox="0 0 30.25 25.032">
  <defs>
    <style>
      .cls-1 {
        fill: #fff;
        fill-rule: evenodd;
      }
    </style>
  </defs>
  <path id="Icon-Favorites" class="cls-1" d="M689.477,957.848a3.8,3.8,0,0,1-2.7-1.1l-10.573-10.471a1.921,1.921,0,0,1-.34-0.465,8.015,8.015,0,0,1-1.23-6.877,8.453,8.453,0,0,1,6.394-5.923,8.8,8.8,0,0,1,1.825-.2,8.215,8.215,0,0,1,6.627,3.524,8.236,8.236,0,0,1,6.614-3.524,8.765,8.765,0,0,1,1.941.227,8.466,8.466,0,0,1,6.29,5.947,8.008,8.008,0,0,1-1.251,6.837,1.826,1.826,0,0,1-.333.452l-10.572,10.471a3.8,3.8,0,0,1-2.7,1.1M679.117,943.9l10.36,10.259L699.835,943.9c0.008-.009.013-0.018,0.021-0.027a4.477,4.477,0,0,0,.81-3.962,4.694,4.694,0,0,0-3.5-3.278,4.832,4.832,0,0,0-1.073-.13c-3.289,0-4.814,4.237-4.829,4.279a1.891,1.891,0,0,1-1.791,1.25h-0.013a1.884,1.884,0,0,1-1.786-1.268c-0.011-.036-1.506-4.261-4.822-4.261a4.937,4.937,0,0,0-1.015.113,4.731,4.731,0,0,0-3.545,3.264,4.474,4.474,0,0,0,.8,3.993c0.007,0.009.015,0.018,0.021,0.027" transform="translate(-674.344 -932.812)"/>
</svg>
