<svg xmlns="http://www.w3.org/2000/svg" viewBox="0 0 163.7 62.05"><title>BRAND</title><g id="Layer_2" data-name="Layer 2"><g id="Layer_1-2" data-name="Layer 1"><path d="M7.65,5.78c0-2.68-.53-4.57-2.29-5.61A.75.75,0,0,0,4.47.12,34.16,34.16,0,0,0,1,3.42,3.41,3.41,0,0,0,0,6.26v28.4c0,2.37.53,4,2.29,5a.83.83,0,0,0,.88,0,33.59,33.59,0,0,0,3.46-2.92,2.85,2.85,0,0,0,1-2.51Z" fill="#fff"/><path d="M58.14,5.78c0-2.68-.53-4.57-2.29-5.61A.75.75,0,0,0,55,.12a34.58,34.58,0,0,0-3.47,3.3,3.42,3.42,0,0,0-1,2.84v28.4c0,2.37.53,4,2.3,5a.83.83,0,0,0,.88,0,33.48,33.48,0,0,0,3.46-2.92,2.84,2.84,0,0,0,1-2.51Z" fill="#fff"/><path d="M41.41,21.51C43.64,22.65,45,24,45,26.06a.88.88,0,0,1-.38.86,34.82,34.82,0,0,1-4.42,1.87,3,3,0,0,1-2.86-.26l-20-10.18c-2.53-1.29-4.06-2.7-4.19-4.87a.8.8,0,0,1,.38-.86,36.23,36.23,0,0,1,4.78-1.69,3.62,3.62,0,0,1,3.17.42Z" fill="#fff"/><path d="M113.21,5.78c0-2.68-.53-4.57-2.29-5.61A.75.75,0,0,0,110,.12a33.66,33.66,0,0,0-3.46,3.3,3.41,3.41,0,0,0-1,2.84v28.4c0,2.37.53,4,2.3,5a.83.83,0,0,0,.88,0,33.49,33.49,0,0,0,3.46-2.92,2.84,2.84,0,0,0,1-2.51Z" fill="#fff"/><path d="M163.7,5.78c0-2.68-.53-4.57-2.29-5.61a.75.75,0,0,0-.88-.06,34.36,34.36,0,0,0-3.47,3.3,3.42,3.42,0,0,0-1,2.84v28.4c0,2.37.53,4,2.29,5a.83.83,0,0,0,.88,0,33.39,33.39,0,0,0,3.47-2.92,2.84,2.84,0,0,0,1-2.51Z" fill="#fff"/><path d="M147,21.51c2.24,1.14,3.57,2.44,3.58,4.56a.88.88,0,0,1-.38.86,34.69,34.69,0,0,1-4.42,1.87,3,3,0,0,1-2.86-.26l-20-10.18c-2.53-1.29-4.06-2.7-4.19-4.87a.79.79,0,0,1,.37-.86,36.29,36.29,0,0,1,4.78-1.69,3.62,3.62,0,0,1,3.17.42Z" fill="#fff"/><path d="M71.27,15.83a3.63,3.63,0,0,0-3,1.07,36.25,36.25,0,0,0-3.49,3.67.79.79,0,0,0,.06.93c1.1,1.87,3.1,2.43,5.94,2.43H92.43a3.62,3.62,0,0,0,3-1.07,36.24,36.24,0,0,0,3.5-3.67.8.8,0,0,0-.06-.94c-1.1-1.87-3.11-2.43-5.95-2.43Z" fill="#fff"/><path d="M16.07,62.05V51.94h6V53.3H17.6v3h3.81v1.35H17.6v3h4.64v1.38Z" fill="#fff"/><path d="M32.19,62.05l-4.74-7.66v7.66H25.93V51.94h1.51l4.75,7.67V51.94h1.52V62.05Z" fill="#fff"/><path d="M41.36,53.3v8.75H39.83V53.3H37.07V51.94h7.06V53.3Z" fill="#fff"/><path d="M47.47,62.05V51.94h6V53.3H49v3h3.81v1.35H49v3h4.63v1.38Z" fill="#fff"/><path d="M63.21,62.05,61.06,57.8H58.85v4.25H57.33V51.94h4.54A2.16,2.16,0,0,1,64,54.19v1.38a2.2,2.2,0,0,1-1.39,2.11l2.24,4.38Zm-.72-7.51c0-.84-.36-1.24-1.3-1.24H58.85v3.14H61.2c.94,0,1.3-.4,1.3-1.24Z" fill="#fff"/><path d="M71.51,53.3v8.75H70V53.3H67.22V51.94h7.06V53.3Z" fill="#fff"/><path d="M82.81,59.27H78.69l-1,2.78H76.15l3.48-10.11h2.24l3.48,10.11H83.77Zm-3.65-1.45h3.17l-1.51-4.46h-.15Z" fill="#fff"/><path d="M89.14,62.05V51.94h1.52V62.05Z" fill="#fff"/><path d="M101.44,62.05,96.7,54.39v7.66H95.18V51.94h1.51l4.75,7.67V51.94H103V62.05Z" fill="#fff"/><path d="M111.58,57.76l2.62-5.82h1.54V62.05h-1.53v-6.8h-.06l-2,4.35h-1.23l-2-4.35h-.06v6.8h-1.52V51.94h1.54l2.62,5.82Z" fill="#fff"/><path d="M120,62.05V51.94h6V53.3h-4.51v3h3.81v1.35h-3.81v3h4.63v1.38Z" fill="#fff"/><path d="M136.16,62.05l-4.74-7.66v7.66H129.9V51.94h1.51l4.75,7.67V51.94h1.53V62.05Z" fill="#fff"/><path d="M145.32,53.3v8.75H143.8V53.3H141V51.94h7.05V53.3Z" fill="#fff"/></g></g></svg>