<svg xmlns="http://www.w3.org/2000/svg" width="14.625" height="10.124" viewBox="0 0 14.625 10.124">
  <defs>
    <style>
      .cls-1 {
        fill: #dedfe5;
        fill-rule: evenodd;
      }
    </style>
  </defs>
  <path id="icon-view" class="cls-1" d="M381.9,192.4a2.1,2.1,0,1,0,2,2.1,2.054,2.054,0,0,0-2-2.1h0Zm0,5.414a3.317,3.317,0,1,1,3.221-3.316,3.273,3.273,0,0,1-3.221,3.316h0Zm7.36-3.639c-1.907-3.056-4.476-4.74-7.228-4.74h0c-2.752,0-5.321,1.684-7.228,4.74a0.614,0.614,0,0,0,0,.645c1.907,3.057,4.476,4.741,7.228,4.741s5.318-1.684,7.228-4.741a0.614,0.614,0,0,0,0-.645h0Z" transform="translate(-374.719 -189.438)"/>
</svg>
