<?xml version="1.0"?>
<!--Icons from directory ""-->
<svg xmlns="http://www.w3.org/2000/svg" width="72" height="684" viewBox="0 0 72 684"><svg width="72" viewBox="-10 -10 72 36" height="36" id="american-express" y="0"><defs><style>.cls-1 {        fill: #3c3d48;        fill-rule: evenodd;        opacity: 0.5;      }</style></defs><path id="american-express-AmericanExpress" d="m362.4 3089.1h4.972v1.27h-3.45v1.09h3.354v1.12h-3.354v1.15h3.45v1.23h-4.97v-5.86zm14.58 2.29c1.869 0.09 2.025 0.97 2.025 1.91a1.775 1.775 0 0 1 -1.95 1.69h-3.195v-1.26h2.49c0.422 0 1.05 0 1.05-0.56 0-0.27-0.11-0.44-0.56-0.48-0.2-0.03-0.939-0.07-1.05-0.07-1.689-0.04-2.082-0.84-2.082-1.8a1.665 1.665 0 0 1 1.812 -1.7h3.2v1.25h-2.339c-0.531 0.01-1.105-0.06-1.105 0.51 0 0.36 0.282 0.43 0.642 0.47h1.06zm-5.727 0c1.869 0.09 2.026 0.97 2.026 1.91a1.774 1.774 0 0 1 -1.951 1.69h-3.194v-1.26h2.489c0.422 0 1.052 0 1.052-0.56 0-0.27-0.111-0.44-0.561-0.48-0.2-0.03-0.94-0.07-1.051-0.07-1.689-0.04-2.081-0.84-2.081-1.8a1.665 1.665 0 0 1 1.812 -1.7h3.195v1.25h-2.338c-0.532 0.01-1.106-0.06-1.106 0.51 0 0.36 0.283 0.43 0.643 0.47h1.06zm-18.036-2.27h-5.33l-1.742 1.81-1.687-1.83h-6v5.86h5.8l1.825-1.93 1.784 1.95h2.918v-2h2.047c0.788 0 2.226-0.03 2.226-2.08a1.671 1.671 0 0 0 -1.84 -1.8zm-9.757 4.61h-3.506v-1.15h3.354v-1.12h-3.354v-1.09h3.7l1.481 1.6zm5.815 0.68-2.185-2.44 2.185-2.29v4.73zm3.43-2.63h-1.895v-1.41h1.9a0.716 0.716 0 1 1 0.01 1.4zm7.859 0.53a1.656 1.656 0 0 0 -0.774 -3.19h-3.954v5.86h1.521v-2.07h1.991a0.858 0.858 0 0 1 0.746 0.99l0.042 1.08h1.48l-0.055-1.21c0-1-0.27-1.4-0.99-1.5zm-1.313-0.61h-1.894v-1.33h1.9a0.716 0.716 0 0 1 0.836 0.68c0.01 0.3-0.21 0.6-0.84 0.6zm-1.285-6.84v-5.9h-1.521v5.87h1.521zm-13.974-5.86h4.972v1.26h-3.449v1.1h3.352v1.11h-3.352v1.15h3.449v1.24h-4.972v-5.86zm10.6 3.19a1.656 1.656 0 0 0 -0.775 -3.19h-3.955v5.86h1.522v-2.07h1.99a0.853 0.853 0 0 1 0.747 0.99l0.043 1.08h1.479l-0.055-1.21c0.02-1-0.26-1.4-0.98-1.5zm-1.314-0.61h-1.894v-1.33h1.9a0.716 0.716 0 0 1 0.836 0.68c0 0.3-0.22 0.6-0.85 0.6zm-12.8-2.58-1.866 3.93-1.861-3.93h-2.385v5.64l-2.656-5.64h-2.012l-2.69 5.9h1.6l0.593-1.31h3.037l0.6 1.31h3.07v-4.36l2.032 4.36h1.384l2.081-4.28v4.28h1.522v-5.86h-2.428zm-10.718 3.28 0.908-2.05 0.945 2.05h-1.853zm43.9-3.29v4.06l-2.56-4.1h-2.248v5.51l-2.593-5.5h-2.013l-2.1 4.53s-0.885 0-0.974-0.02a1.169 1.169 0 0 1 -0.948 -1.35v-0.42c0-1.37 0.789-1.47 1.8-1.47h0.939v-1.3h-1.986c-0.692 0-2.2 0.5-2.246 2.91-0.035 1.62 0.712 2.96 2.4 2.96h2.006l0.594-1.31h3.036l0.6 1.31h3v-4.29l2.738 4.29h2.075v-5.9h-1.521zm-9.343 3.3 0.906-2.05 0.954 2.05h-1.86z" transform="translate(-327 -3079)" class="cls-1"/></svg><svg width="24" viewBox="-10 -10 24 27" height="27" id="arrow" y="36"><defs><style>.cls-1 {        fill: #fff;        fill-rule: evenodd;      }</style></defs><path id="arrow-Icon-Arrow" d="m1048.1 2963.8a0.646 0.646 0 0 1 -0.45 0.2 0.716 0.716 0 0 1 -0.67 -0.75 0.762 0.762 0 0 1 0.22 -0.55l2.13-2.2-2.13-2.2a0.762 0.762 0 0 1 -0.22 -0.55 0.716 0.716 0 0 1 0.67 -0.75 0.646 0.646 0 0 1 0.45 0.2l2.66 2.75a0.8 0.8 0 0 1 0 1.1z" transform="translate(-1047 -2957)" class="cls-1"/></svg><svg id="behance" viewBox="-10 -10 46 46" width="46" height="46" y="63"><defs><style>.cls-1 {        fill: #1769ff;      }      .cls-2 {        fill: #fff;        fill-rule: evenodd;      }</style></defs><circle id="behance-Base" cy="13" cx="13" r="13" class="cls-1"/><path id="behance-Icon" d="m886.05 2854.5a1.66 1.66 0 0 0 1.42 -1.86 2.431 2.431 0 0 0 -2.633 -2.61h-4.84v9.8h4.84a2.793 2.793 0 0 0 2.954 -2.89s0.13-2.4-1.74-2.4zm-3.92-2.73h2.707s0.658 0 0.658 1.02-0.387 1.17-0.827 1.17h-2.54v-2.19zm2.57 6.32h-2.57v-2.62h2.707a1.094 1.094 0 0 1 0.981 1.34 1.079 1.079 0 0 1 -1.12 1.3zm7.033-5.57c-3.578 0-3.575 3.77-3.575 3.77a3.422 3.422 0 0 0 3.575 3.74s3.182 0.2 3.182-2.6h-1.636s0.054 1.05-1.492 1.05a1.533 1.533 0 0 1 -1.637 -1.7h4.82s0.53-4.2-3.24-4.2zm1.455 2.95h-3.055a1.711 1.711 0 0 1 1.637 -1.51 1.438 1.438 0 0 1 1.43 1.5zm0.382-4.87h-3.838v1.21h3.837v-1.21z" transform="translate(-874 -2842)" class="cls-2"/></svg><svg width="35" viewBox="-10 -10 35 40" height="40" id="cart" y="109"><defs><style>.cls-1 {        fill: #fff;        fill-rule: evenodd;      }</style></defs><path id="cart-Icon" d="m223.01 1750v-2.51c0-2.15-2.278-3.49-4.509-3.49s-4.509 1.34-4.509 3.49v2.5l-2.99-0.02v11.26a2.822 2.822 0 0 0 2.872 2.76h9.248a2.822 2.822 0 0 0 2.872 -2.76s-0.021-11.26 0-11.26h-2.98zm-7.019-2.52c0-1.02 1.477-1.75 2.51-1.75s2.48 0.62 2.48 1.75v2.4h-4.99v-2.52zm8.01 13.4a1.072 1.072 0 0 1 -1.091 1.05h-8.822a1.071 1.071 0 0 1 -1.091 -1.05s0-8.93 0-8.94 8.435 0 11.018 0.01c-0.02-0.1-0.02 8.8-0.02 8.8zm-2.863-6.72a4.548 4.548 0 0 1 -5.267 0 0.912 0.912 0 0 0 -1.255 0.1 0.838 0.838 0 0 0 0.1 1.21 6.025 6.025 0 0 0 7.577 0 0.838 0.838 0 0 0 0.1 -1.21 0.912 0.912 0 0 0 -1.27 -0.1z" transform="translate(-211 -1744)" class="cls-1"/></svg><svg width="37" viewBox="-10 -10 37 37" height="37" id="clock" y="149"><defs><style>.cls-1 {        fill: #5b5d69;        fill-rule: evenodd;      }</style></defs><path id="clock-Icon-clock" d="m168.5 2724a8.5 8.5 0 1 1 8.5 -8.5 8.508 8.508 0 0 1 -8.5 8.5zm0-15.01a6.51 6.51 0 1 0 6.511 6.51 6.518 6.518 0 0 0 -6.51 -6.5zm2.5 8.02h-3.311a0.719 0.719 0 0 1 -0.7 -0.73v-4.3a0.964 0.964 0 0 1 1.048 -1 0.93 0.93 0 0 1 0.951 1v3h2.01a0.94 0.94 0 0 1 0.983 0.97 0.911 0.911 0 0 1 -0.98 1z" transform="translate(-160 -2707)" class="cls-1"/></svg><svg width="36" viewBox="-10 -10 36 37" height="37" id="comments" y="186"><defs><style>.cls-1 {        fill: #fff;        fill-rule: evenodd;      }</style></defs><path id="comments-Icon-comments" d="m488.73 2720l-4.737 4v-4h-1.99a1.888 1.888 0 0 1 -2 -2.01v-9a1.834 1.834 0 0 1 1.989 -1.99h12a1.747 1.747 0 0 1 2.011 1.97v9.02a1.726 1.726 0 0 1 -2 2.01h-5.273zm5.267-11.01h-12.01v9h3.993v1.98l2.132-2.01h5.88v-8.98z" transform="translate(-480 -2707)" class="cls-1"/></svg><svg id="dribbble" viewBox="-10 -10 46 46" width="46" height="46" y="223"><defs><style>.cls-1 {        fill: #9ba5a8;      }      .cls-2 {        fill: #fff;        fill-rule: evenodd;      }</style></defs><circle id="dribbble-Base" cy="13" cx="13" r="13" class="cls-1"/><path id="dribbble-Icon" d="m851 2862a7 7 0 1 1 7 -7 7.008 7.008 0 0 1 -7 7zm5.9-6.04a8.643 8.643 0 0 0 -3.724 -0.26 25.768 25.768 0 0 1 1.162 4.27 6.008 6.008 0 0 0 2.56 -4zm-3.567 4.55a24.894 24.894 0 0 0 -1.276 -4.53c-0.013 0-0.026 0.01-0.039 0.01a8.215 8.215 0 0 0 -4.691 3.74 5.952 5.952 0 0 0 3.67 1.26 5.879 5.879 0 0 0 2.35 -0.6zm-6.778-1.5a9.507 9.507 0 0 1 4.86 -3.95c0.078-0.02 0.157-0.05 0.236-0.07-0.15-0.34-0.314-0.68-0.485-1.01a22.42 22.42 0 0 1 -6.145 0.85q0 0.09 0 0.18a5.971 5.971 0 0 0 1.54 3.8zm-1.411-5.23a21.887 21.887 0 0 0 5.528 -0.72 36.012 36.012 0 0 0 -2.217 -3.46 6 6 0 0 0 -3.3 4.1zm4.452-4.58a31.853 31.853 0 0 1 2.231 3.5 6.807 6.807 0 0 0 3.134 -2.16 5.934 5.934 0 0 0 -5.36 -1.4zm6.029 2.03a8.034 8.034 0 0 1 -3.339 2.36c0.14 0.28 0.273 0.57 0.4 0.86 0.044 0.1 0.087 0.21 0.129 0.31a14.078 14.078 0 0 1 4.163 0.19 5.944 5.944 0 0 0 -1.34 -3.9z" transform="translate(-838 -2842)" class="cls-2"/></svg><svg width="32" viewBox="-10 -10 32 36" height="36" id="face" y="269"><defs><style>.cls-1 {        fill: #3c3d48;        fill-rule: evenodd;      }</style></defs><path id="face-Icon-face" d="m1011 51.058a4.3 4.3 0 0 0 4 -4.535 4.032 4.032 0 1 0 -8 0 4.3 4.3 0 0 0 4 4.535zm0-7.058a2.587 2.587 0 1 1 -2 2.52 2.31 2.31 0 0 1 2 -2.52zm5.51 8.763l-0.5-1.114a1 1 0 0 0 -1.32 -0.5 1.006 1.006 0 0 0 -0.5 1.335l0.5 1.118a3.358 3.358 0 0 1 0.32 1.436 0.883 0.883 0 0 1 -0.82 0.96h-6.36a0.881 0.881 0 0 1 -0.82 -0.957 3.5 3.5 0 0 1 0.32 -1.467l0.5-1.1a1 1 0 1 0 -1.82 -0.824l-0.5 1.116a5.4 5.4 0 0 0 -0.5 2.277 2.882 2.882 0 0 0 2.82 2.973h6.36a2.89 2.89 0 0 0 2.82 -2.976 5.5 5.5 0 0 0 -0.5 -2.273z" transform="translate(-1005 -42)" class="cls-1"/></svg><svg id="facebook" viewBox="-10 -10 46 46" width="46" height="46" y="305"><defs><style>.cls-1 {        fill: #3b5998;      }      .cls-2 {        fill: #fff;        fill-rule: evenodd;      }</style></defs><circle id="facebook-Base" cy="13" cx="13" r="13" class="cls-1"/><path id="facebook-Icon" d="m816.13 2861h-1.887v-6h-1.24v-2.26h1.239v-1.03c0-1.68 0.408-2.71 2.179-2.71h1.572v2.26h-1.136c-0.69 0-0.723 0.28-0.723 0.82v0.66h1.87l-0.2 2.26h-1.675z" transform="translate(-802 -2842)" class="cls-2"/></svg><svg width="36" viewBox="-10 -10 36 37" height="37" id="headset" y="351"><defs><style>.cls-1 {        fill: #3c3d48;        fill-rule: evenodd;      }</style></defs><path id="headset-Icon-headset" d="m143.46 46.994h-0.451v-1.208a5.017 5.017 0 0 0 -10.023 0v1.224h-0.451c-1.4 0-2.539 1.552-2.539 2.96s1.139 3.022 2.539 3.022h2.46v-7.019a3 3 0 0 1 6 0v8.252a1.248 1.248 0 0 1 -1.243 1.25h-0.128a1.8 1.8 0 1 0 0 1.457h0.128c1.484 0 3.255-1.214 3.255-2.707v-1.25h0.451c1.4 0 2.539-1.552 2.539-2.96s-1.15-3.021-2.55-3.021zm-10.47 4.006h-0.451c-0.6 0-0.559-0.43-0.559-1.034s-0.042-1 0.559-1h0.451v2.034zm10.474-0.016h-0.451v-2h0.451c0.6 0 0.559 0.429 0.559 1.034s0.04 0.969-0.56 0.969z" transform="translate(-130 -41)" class="cls-1"/></svg><svg id="instagram" viewBox="-10 -10 46 46" width="46" height="46" y="388"><defs><style>.cls-1 {        fill: #3f729b;      }      .cls-2 {        fill: #fff;        fill-rule: evenodd;      }</style></defs><circle id="instagram-Base" cy="13" cx="13" r="13" class="cls-1"/><path id="instagram-Icon" d="m783.5 2849h-9a1.5 1.5 0 0 0 -1.5 1.5v9.01a1.5 1.5 0 0 0 1.5 1.5h9a1.5 1.5 0 0 0 1.5 -1.5v-9.01a1.5 1.5 0 0 0 -1.5 -1.5zm-4.5 4.5a1.578 1.578 0 0 1 1.5 1.5 1.5 1.5 0 1 1 -3 0 1.578 1.578 0 0 1 1.5 -1.5zm4.5 5.26a0.752 0.752 0 0 1 -0.75 0.75h-7.5a0.752 0.752 0 0 1 -0.75 -0.75v-3.76a0.752 0.752 0 0 1 0.75 -0.75h0.857a3 3 0 1 0 5.786 0h0.857a0.752 0.752 0 0 1 0.75 0.75v3.76zm0-6.76a0.752 0.752 0 0 1 -0.75 0.75h-0.75a0.753 0.753 0 0 1 -0.75 -0.75v-0.75a0.753 0.753 0 0 1 0.75 -0.75h0.75a0.752 0.752 0 0 1 0.75 0.75v0.75z" transform="translate(-766 -2842)" class="cls-2"/></svg><svg width="32" viewBox="-10 -10 32 35.938" height="36" id="lock" y="434"><defs><style>.cls-1 {        fill: #3c3d48;        fill-rule: evenodd;      }</style></defs><path id="lock-Icon-lock" d="m974 46.991h-1v-0.906a4 4 0 1 0 -8 0v0.907h-1a1.1 1.1 0 0 0 -1 1.108v5.992a3.926 3.926 0 0 0 3.991 3.921h4.01a3.935 3.935 0 0 0 4 -3.931v-5.982a1.1 1.1 0 0 0 -1 -1.109zm-7-0.907a2 2 0 1 1 4 0v0.907h-4v-0.906zm6 8a1.927 1.927 0 0 1 -2 1.916h-4.008a1.917 1.917 0 0 1 -1.99 -1.908v-5.085h8v5.075zm-6.449-2.059 0.092 0.046a5.264 5.264 0 0 0 4.716 0l0.09-0.046a1.012 1.012 0 0 0 0.445 -1.353 1 1 0 0 0 -1.343 -0.448l-0.089 0.045a3.259 3.259 0 0 1 -2.922 0l-0.091-0.046a1 1 0 0 0 -1.343 0.448 1.012 1.012 0 0 0 0.44 1.352z" transform="translate(-963 -42.063)" class="cls-1"/></svg><svg width="59" viewBox="-10 -10 59 43" height="43" id="mastercard" y="470"><defs><style>.cls-1 {        fill: #3c3d48;        fill-rule: evenodd;        opacity: 0.5;      }</style></defs><path id="mastercard-MasterCard" d="m137.93 3088.1a0.417 0.417 0 0 0 0.471 0.47 1.071 1.071 0 0 0 0.942 -1.16h-0.314c-0.71 0-1.1 0.3-1.1 0.7zm20.084 0a0.417 0.417 0 0 0 0.471 0.47 1.071 1.071 0 0 0 0.942 -1.16h-0.314c-0.78 0-1.09 0.3-1.09 0.7zm-9.571-2.31a0.851 0.851 0 0 0 -0.784 0.85h1.412a0.632 0.632 0 0 0 -0.63 -0.8zm17.024 0.15a1.424 1.424 0 0 0 -1.02 1.62c0 0.62 0.236 0.93 0.628 0.93 0.628 0 1.02-0.7 1.02-1.62 0.09-0.6-0.15-0.9-0.62-0.9zm-8.159-10.95a11.866 11.866 0 0 0 -7.845 2.93 11.5 11.5 0 1 0 0 17.13 11.6 11.6 0 1 0 7.85 -20.1zm-22.359 14.58 0.706-4.48-1.647 4.48h-0.863l-0.078-4.48-0.785 4.48h-1.177l1.02-5.86h1.8l0.079 3.62 1.255-3.62h1.961l-1.019 5.86h-1.256zm4.237 0v-0.46a1.648 1.648 0 0 1 -1.334 0.54 1.191 1.191 0 0 1 -1.177 -1.32c0-1.15 0.785-1.85 2.2-1.85h0.549a0.564 0.564 0 0 0 0.079 -0.31c0-0.3-0.236-0.46-0.785-0.46a4.339 4.339 0 0 0 -1.334 0.23c0-0.07 0.157-1.08 0.157-1.08a6.079 6.079 0 0 1 1.491 -0.23c1.1 0 1.647 0.46 1.647 1.39a4.444 4.444 0 0 1 -0.078 0.93c-0.079 0.69-0.314 2.16-0.392 2.54a5.11 5.11 0 0 1 -1.03 0.3zm3.765-2.86a1.321 1.321 0 0 1 0.863 1.32c0 1.08-0.627 1.62-1.961 1.62a4.183 4.183 0 0 1 -1.334 -0.16c0-0.08 0.157-1.08 0.157-1.08a3 3 0 0 0 1.177 0.16c0.471 0 0.706-0.16 0.706-0.47 0-0.23-0.078-0.31-0.627-0.54a1.287 1.287 0 0 1 -0.942 -1.31c0-0.85 0.471-1.62 1.883-1.62 0.314 0 0.785 0.08 1.1 0.08l-0.157 1.08a3.741 3.741 0 0 0 -0.941 -0.08c-0.392 0-0.628 0.16-0.628 0.39a0.819 0.819 0 0 0 0.71 0.6zm2.746 1.78a0.373 0.373 0 0 0 0.314 -0.08l-0.157 1.08a3.865 3.865 0 0 1 -0.941 0.16 0.964 0.964 0 0 1 -1.02 -1.08 10.081 10.081 0 0 1 0.157 -1.24l0.549-3.24h1.255l-0.157 0.7h0.628l-0.157 1.15h-0.628c-0.156 0.93-0.392 2.01-0.392 2.16a0.69 0.69 0 0 0 0.57 0.3zm2.981 0.08a2.828 2.828 0 0 0 1.334 -0.31l-0.235 1.15a3.817 3.817 0 0 1 -1.334 0.16 1.858 1.858 0 0 1 -2.118 -2.08c0-1.62 0.941-2.86 2.2-2.86a1.638 1.638 0 0 1 1.726 1.7 6.987 6.987 0 0 1 -0.157 1.16h-2.511a0.926 0.926 0 0 0 1.11 1.1zm2.825 1h-1.25l0.078-0.31c0.235-1.47 0.471-2.93 0.628-4.4h1.176c0 0.23-0.078 0.47-0.078 0.7a1.289 1.289 0 0 1 1.255 -0.77 3.538 3.538 0 0 0 -0.471 1.38c-0.79-0.1-0.86 0.5-1.34 3.4zm4.864-0.08a3.009 3.009 0 0 1 -1.1 0.16c-1.334 0-2.2-1.01-2.2-2.55 0-2.08 1.177-3.55 2.9-3.55a4.717 4.717 0 0 1 1.412 0.31l-0.236 1.23a2.378 2.378 0 0 0 -1.1 -0.3 1.906 1.906 0 0 0 -1.647 2.16 1.212 1.212 0 0 0 1.176 1.38 2.385 2.385 0 0 0 1.1 -0.3zm3.922 0.08h-1.019v-0.46a1.648 1.648 0 0 1 -1.334 0.54 1.191 1.191 0 0 1 -1.177 -1.32c0-1.15 0.785-1.85 2.2-1.85h0.549a0.569 0.569 0 0 0 0.078 -0.31c0-0.3-0.235-0.46-0.784-0.46a4.333 4.333 0 0 0 -1.334 0.23c0-0.07 0.157-1.08 0.157-1.08a6.079 6.079 0 0 1 1.491 -0.23c1.1 0 1.647 0.46 1.647 1.39a4.444 4.444 0 0 1 -0.078 0.93 23.375 23.375 0 0 0 -0.4 2.8zm1.726 0h-1.255l0.079-0.31c0.235-1.47 0.47-2.93 0.627-4.4h1.177c0 0.23-0.078 0.47-0.078 0.7a1.289 1.289 0 0 1 1.255 -0.77 3.538 3.538 0 0 0 -0.471 1.38c-0.78-0.1-0.94 0.5-1.33 3.4zm3.766 0 0.079-0.46a1.439 1.439 0 0 1 -1.177 0.54c-0.942 0-1.569-0.78-1.569-2.01 0-1.54 0.941-2.93 2.039-2.93a1.488 1.488 0 0 1 1.177 0.62l0.314-1.7h1.26l-0.941 5.86h-1.177v0.08z" transform="translate(-130 -3075)" class="cls-1"/></svg><svg width="56" viewBox="-10 -10 56 30" height="30" id="paypal" y="513"><defs><style>.cls-1 {        fill: #3c3d48;        fill-rule: evenodd;        opacity: 0.5;      }</style></defs><path id="paypal-PayPal" d="m296.95 3084a4.124 4.124 0 0 0 -1.933 -0.34 8.289 8.289 0 0 0 -1.309 0.1c-0.322 0.05-0.354 0.06-0.554 0.1a0.633 0.633 0 0 0 -0.475 0.5l-0.132 0.54c-0.075 0.34 0.123 0.33 0.211 0.3a5.847 5.847 0 0 1 0.643 -0.19 4.881 4.881 0 0 1 1.015 -0.14 2.7 2.7 0 0 1 0.981 0.14 0.5 0.5 0 0 1 0.327 0.49 0.349 0.349 0 0 1 -0.018 0.15 0.183 0.183 0 0 1 -0.157 0.1 14.629 14.629 0 0 0 -1.594 0.17 5.077 5.077 0 0 0 -1.373 0.37 2.119 2.119 0 0 0 -0.93 0.73 1.986 1.986 0 0 0 -0.31 1.12 1.307 1.307 0 0 0 0.441 1.02 1.667 1.667 0 0 0 1.141 0.39 2.888 2.888 0 0 0 0.678 -0.07 3.3 3.3 0 0 0 0.521 -0.17 2.53 2.53 0 0 0 0.445 -0.25c0.159-0.1 0.268-0.18 0.408-0.27v0.01l-0.039 0.17v0.01a0.316 0.316 0 0 0 0.289 0.4v0.01h1a0.032 0.032 0 0 0 0.015 -0.01 0.558 0.558 0 0 0 0.463 -0.4l0.79-3.38a2.093 2.093 0 0 0 0.04 -0.28 2.38 2.38 0 0 0 0.019 -0.26 1.132 1.132 0 0 0 -0.61 -1.1zm-1.914 4.03a3.147 3.147 0 0 1 -0.424 0.22 1.527 1.527 0 0 1 -0.564 0.12 1.26 1.26 0 0 1 -0.615 -0.12 0.416 0.416 0 0 1 -0.211 -0.4 0.8 0.8 0 0 1 0.156 -0.52 1.048 1.048 0 0 1 0.462 -0.31 3.763 3.763 0 0 1 0.712 -0.16c0.247-0.03 0.735-0.09 0.8-0.09s0.1-0.03 0.076 0.13c-0.012 0.07-0.153 0.65-0.218 0.91a0.491 0.491 0 0 1 -0.18 0.3zm-11.672-4.3a0.94 0.94 0 0 0 -0.678 0.41s-1.55 2.64-1.7 2.9c-0.083 0.14-0.167 0.06-0.181 0s-0.479-2.88-0.479-2.88a0.591 0.591 0 0 0 -0.591 -0.42h-0.965a0.321 0.321 0 0 0 -0.327 0.41s0.738 4.16 0.882 5.13a1.087 1.087 0 0 1 -0.007 0.64l-0.958 1.66c-0.14 0.22-0.063 0.41 0.169 0.41l1.119-0.01a0.916 0.916 0 0 0 0.678 -0.4l4.306-7.24s0.412-0.61 0.032-0.61c-0.258 0.01-1.3 0-1.3 0m-13.6 1.47a2.261 2.261 0 0 1 -1.365 0.36h-0.265a0.323 0.323 0 0 1 -0.329 -0.41l0.325-1.4a0.538 0.538 0 0 1 0.516 -0.4l0.354-0.01a1.72 1.72 0 0 1 0.94 0.21 0.7 0.7 0 0 1 0.311 0.64 1.155 1.155 0 0 1 -0.487 1.01m2.335-2.15a1.61 1.61 0 0 0 -0.594 -0.63 2.853 2.853 0 0 0 -0.938 -0.34 7.844 7.844 0 0 0 -1.277 -0.1h-2.256a0.566 0.566 0 0 0 -0.519 0.41l-1.51 6.5a0.322 0.322 0 0 0 0.328 0.41h1.082a0.551 0.551 0 0 0 0.517 -0.41l0.372-1.6a0.549 0.549 0 0 1 0.516 -0.4h0.309a5.13 5.13 0 0 0 3.085 -0.81 2.517 2.517 0 0 0 1.1 -2.13 2.035 2.035 0 0 0 -0.206 -0.97m17.3 2.18a2.326 2.326 0 0 1 -1.364 0.35h-0.28a0.319 0.319 0 0 1 -0.329 -0.41l0.325-1.39a0.559 0.559 0 0 1 0.514 -0.41h0.355a1.718 1.718 0 0 1 0.94 0.21 0.7 0.7 0 0 1 0.314 0.64 1.184 1.184 0 0 1 -0.487 1.01m2.334-2.15a1.62 1.62 0 0 0 -0.595 -0.63 2.641 2.641 0 0 0 -0.94 -0.35 9.051 9.051 0 0 0 -1.272 -0.1l-2.263 0.01a0.553 0.553 0 0 0 -0.515 0.4l-1.52 6.57a0.317 0.317 0 0 0 0.324 0.41h1.085a0.56 0.56 0 0 0 0.52 -0.41l0.366-1.59a0.564 0.564 0 0 1 0.519 -0.41h0.309a5.2 5.2 0 0 0 3.086 -0.8 2.536 2.536 0 0 0 1.1 -2.13 2.067 2.067 0 0 0 -0.206 -0.97m-14.419 0.91a4.252 4.252 0 0 0 -1.931 -0.34 9.677 9.677 0 0 0 -1.31 0.1c-0.322 0.05-0.354 0.06-0.555 0.1a0.631 0.631 0 0 0 -0.474 0.5l-0.132 0.54c-0.075 0.35 0.124 0.33 0.212 0.3 0.178-0.05 0.276-0.1 0.642-0.19a5.567 5.567 0 0 1 1.015 -0.13 2.7 2.7 0 0 1 0.98 0.14 0.481 0.481 0 0 1 0.327 0.48 0.317 0.317 0 0 1 -0.017 0.15 0.154 0.154 0 0 1 -0.156 0.1c-0.618 0.04-1.06 0.1-1.6 0.17a5.047 5.047 0 0 0 -1.373 0.38 2.1 2.1 0 0 0 -0.929 0.73 1.941 1.941 0 0 0 -0.311 1.12 1.3 1.3 0 0 0 0.441 1.01 1.667 1.667 0 0 0 1.141 0.39 3 3 0 0 0 0.679 -0.06 3.4 3.4 0 0 0 0.52 -0.18 3.257 3.257 0 0 0 0.446 -0.24c0.157-0.11 0.267-0.18 0.407-0.27v0.01l-0.04 0.17v0.01a0.319 0.319 0 0 0 0.288 0.4h1.023a0.569 0.569 0 0 0 0.463 -0.41l0.79-3.38a1.755 1.755 0 0 0 0.04 -0.28 1.911 1.911 0 0 0 0.019 -0.26 1.141 1.141 0 0 0 -0.58 -1.2zm-1.913 4.04a3.053 3.053 0 0 1 -0.425 0.21 1.523 1.523 0 0 1 -0.564 0.12 1.281 1.281 0 0 1 -0.615 -0.11 0.419 0.419 0 0 1 -0.211 -0.4 0.84 0.84 0 0 1 0.158 -0.53 1.131 1.131 0 0 1 0.46 -0.31 4.773 4.773 0 0 1 0.714 -0.16c0.246-0.03 0.734-0.08 0.8-0.08s0.1-0.04 0.076 0.13c-0.012 0.07-0.153 0.64-0.218 0.9a0.589 0.589 0 0 1 -0.17 0.2zm22.339 0.95c0.062-0.23 1.449-6.51 1.449-6.51a0.559 0.559 0 0 1 0.521 -0.41h0.967a0.321 0.321 0 0 1 0.327 0.41l-1.448 6.51a0.564 0.564 0 0 1 -0.518 0.41h-1" transform="translate(-265 -3082)" class="cls-1"/></svg><svg width="27" viewBox="-10 -10 27 24" height="24" id="select" y="543"><defs><style>.cls-1 {        fill: #e36556;        fill-rule: evenodd;      }</style></defs><path id="select-Icon-select" d="m864.2 49.117a0.628 0.628 0 0 1 -0.2 -0.45 0.713 0.713 0 0 1 0.75 -0.667 0.789 0.789 0 0 1 0.551 0.218l2.2 2.131 2.2-2.131a0.791 0.791 0 0 1 0.55 -0.218 0.713 0.713 0 0 1 0.75 0.667 0.624 0.624 0 0 1 -0.2 0.45l-2.75 2.667a0.815 0.815 0 0 1 -1.106 0z" transform="translate(-864 -48)" class="cls-1"/></svg><svg id="twitter" viewBox="-10 -10 46 46" width="46" height="46" y="567"><defs><style>.cls-1 {        fill: #55acee;      }      .cls-2 {        fill: #fff;        fill-rule: evenodd;      }</style></defs><circle id="twitter-Base" cy="13" cx="13" r="13" class="cls-1"/><path id="twitter-Icon" d="m749 2851.2a4.819 4.819 0 0 1 -1.414 0.4 2.522 2.522 0 0 0 1.083 -1.4 5.018 5.018 0 0 1 -1.564 0.62 2.436 2.436 0 0 0 -1.8 -0.8 2.493 2.493 0 0 0 -2.462 2.52 2.59 2.59 0 0 0 0.064 0.58 6.942 6.942 0 0 1 -5.074 -2.64 2.564 2.564 0 0 0 -0.334 1.27 2.53 2.53 0 0 0 1.1 2.1 2.356 2.356 0 0 1 -1.115 -0.31v0.03a2.506 2.506 0 0 0 1.975 2.47 2.323 2.323 0 0 1 -0.649 0.09 2.36 2.36 0 0 1 -0.463 -0.04 2.474 2.474 0 0 0 2.3 1.75 4.846 4.846 0 0 1 -3.058 1.08 5.7 5.7 0 0 1 -0.587 -0.03 6.894 6.894 0 0 0 3.774 1.13 7.055 7.055 0 0 0 7 -7.18c0-0.11 0-0.22-0.007-0.33a5.091 5.091 0 0 0 1.24 -1.3z" transform="translate(-730 -2842)" class="cls-2"/></svg><svg width="59" viewBox="-10 -10 59 33" height="33" id="visa" y="613"><defs><style>.cls-1 {        fill: #3c3d48;        fill-rule: evenodd;        opacity: 0.5;      }</style></defs><path id="visa-Visa" d="m213.91 3092.8h-3.182l1.989-12.56h3.18zm-5.86-12.56-3.033 8.64-0.36-1.86l-1.071-5.64a1.378 1.378 0 0 0 -1.509 -1.14h-5.016l-0.058 0.22a11.512 11.512 0 0 1 3.329 1.43l2.765 10.91h3.315l5.064-12.56h-3.426zm25.032 12.56h2.92l-2.548-12.56h-2.558a1.469 1.469 0 0 0 -1.469 0.94l-4.746 11.62h3.33l0.663-1.86h4.046zm-3.5-4.44 1.672-4.7 0.941 4.7h-2.613zm-4.648-5.1 0.454-2.69a8.944 8.944 0 0 0 -2.862 -0.55c-1.58 0-5.33 0.71-5.33 4.16 0 3.24 4.4 3.28 4.4 4.99s-3.948 1.39-5.252 0.32l-0.473 2.82a8.713 8.713 0 0 0 3.593 0.71c2.171 0 5.448-1.16 5.448-4.3 0-3.27-4.442-3.57-4.442-4.99s3.1-1.2 4.46-0.5zm-20.28 3.7l-1.071-5.64a1.378 1.378 0 0 0 -1.509 -1.14h-5.016l-0.058 0.22a12.164 12.164 0 0 1 4.723 2.43 9.812 9.812 0 0 1 2.94 4.1z" transform="translate(-197 -3080)" class="cls-1"/></svg><svg width="37" viewBox="-10 -10 37 38" height="38" id="wishlist" y="646"><defs><style>.cls-1 {        fill: #fff;        fill-rule: evenodd;      }</style></defs><path id="wishlist-Icon" d="m265.22 1747c1.757 0 2.8 1.42 2.8 3.41 0 5.3-4.625 8.95-6.519 10.25-1.894-1.3-6.507-4.95-6.507-10.25 0-1.99 1.031-3.41 2.788-3.41a3.059 3.059 0 0 1 2.48 1.34 1.539 1.539 0 0 0 1.239 0.67 1.538 1.538 0 0 0 1.239 -0.67 3.059 3.059 0 0 1 2.48 -1.34m0-1.99a4.575 4.575 0 0 0 -3.719 2.01 4.576 4.576 0 0 0 -3.719 -2.01c-2.64 0-4.781 2.42-4.781 5.4 0 7.2 7.437 12 8.5 12.6 1.063-0.6 8.5-5.4 8.5-12.6 0-2.98-2.141-5.4-4.781-5.4z" transform="translate(-253 -1745)" class="cls-1"/></svg></svg>
