<svg id="Layer_1" data-name="Layer 1" xmlns="http://www.w3.org/2000/svg" xmlns:xlink="http://www.w3.org/1999/xlink" viewBox="0 0 400 400"><defs><style>.cls-1{opacity:0.8;fill:url(#linear-gradient);}.cls-2{fill:#f28840;}.cls-3{fill:#ffb56d;}.cls-4{fill:#ffd9b5;}.cls-5{fill:none;stroke:#7c2f57;stroke-linecap:round;stroke-linejoin:round;stroke-width:2px;}.cls-6{fill:#fff;opacity:0.5;}</style><linearGradient id="linear-gradient" x1="233.46" y1="228" x2="263.46" y2="228" gradientUnits="userSpaceOnUse"><stop offset="0" stop-color="#fe7100"/><stop offset="0.98" stop-color="#fe7100" stop-opacity="0"/></linearGradient></defs><title>Food Icons</title><rect class="cls-1" x="233.5" y="225" width="30" height="6"/><path class="cls-2" d="M214,172H190v58h43.5a4,4,0,0,0,4-4V194.5c3.7-2.9,4.5-5.9,4.5-8.1C242,178.2,230,172,214,172Z"/><path class="cls-3" d="M170.5,230a4,4,0,0,1-4-4V194.5c-3.7-2.9-4.5-5.9-4.5-8.1,0-8.2,12-14.4,28-14.4s28,6.2,28,14.4c0,2.1-.8,5.2-4.5,8.1V226a4,4,0,0,1-4,4Z"/><path class="cls-4" d="M171.5,225V192l-1.9-1.5c-1.7-1.3-2.6-2.7-2.6-4.1,0-4.4,9.4-9.4,23-9.4s23,4.9,23,9.4c0,1.4-.9,2.8-2.6,4.1l-1.9,1.5v33Z"/><path class="cls-5" d="M190,172c16,0,28,6.2,28,14.4,0,2.1-.8,5.2-4.5,8.1V225"/><line class="cls-5" x1="231.5" y1="194.5" x2="222.5" y2="194.5"/><circle class="cls-3" cx="194.8" cy="182.3" r="1.5"/><circle class="cls-3" cx="201.1" cy="216.8" r="1.5"/><circle class="cls-3" cx="176.3" cy="199.5" r="1.5"/><circle class="cls-3" cx="185.8" cy="211.9" r="1.5"/><circle class="cls-3" cx="199.6" cy="187.6" r="1.5"/><circle class="cls-3" cx="179" cy="189" r="1.5"/><path class="cls-6" d="M187,172.1c-14.5.7-25,6.6-25,14.3,0,2.1.8,5.2,4.5,8.1v20.9Z"/><line class="cls-5" x1="166.5" y1="204.5" x2="166.5" y2="205.5"/><path class="cls-5" d="M166.5,211.5V226a4,4,0,0,0,4,4h62.9a4,4,0,0,0,4-4V194.5c3.7-2.9,4.5-5.9,4.5-8.1,0-8.2-12-14.4-28-14.4H190c-16,0-28,6.2-28,14.4,0,2.1.8,5.2,4.5,8.1v4"/></svg>