<svg id="Layer_1" data-name="Layer 1" xmlns="http://www.w3.org/2000/svg" xmlns:xlink="http://www.w3.org/1999/xlink" viewBox="0 0 400 400"><defs><style>.cls-1{fill:url(#linear-gradient);}.cls-2{fill:#ffd9b5;}.cls-3{fill:#ff9695;}.cls-4{fill:#fff;}.cls-5{fill:#7c2f57;opacity:0.3;}.cls-5,.cls-6{stroke:#7c2f57;stroke-linecap:round;stroke-linejoin:round;stroke-width:2px;}.cls-6{fill:none;}.cls-7{fill:#f93a26;}.cls-8{fill:#ffbe88;}</style><linearGradient id="linear-gradient" x1="236" y1="228" x2="276" y2="228" gradientUnits="userSpaceOnUse"><stop offset="0" stop-color="#ffbe88"/><stop offset="1" stop-color="#ffbe88" stop-opacity="0"/></linearGradient></defs><title>Food Icons</title><rect class="cls-1" x="236" y="225" width="40" height="6"/><path class="cls-2" d="M178.3,171.7l-17.1,17.1a4,4,0,0,0-1.2,2.8V226a4,4,0,0,0,4,4h72a4,4,0,0,0,4-4V192.9a4,4,0,0,0-2.7-3.8l-54.9-18.3A4,4,0,0,0,178.3,171.7Z"/><path class="cls-3" d="M165,207h74a0,0,0,0,1,0,0v10a0,0,0,0,1,0,0H167a2,2,0,0,1-2-2v-8A0,0,0,0,1,165,207Z"/><path class="cls-4" d="M167,202h72a0,0,0,0,1,0,0v5a0,0,0,0,1,0,0H165a0,0,0,0,1,0,0v-3A2,2,0,0,1,167,202Z"/><path class="cls-3" d="M238.8,190a4,4,0,0,0-1.5-.9l-27.5-9.2-27.5-9.2a4,4,0,0,0-4.1,1l-17.1,17.1a4,4,0,0,0-.8,1.2Z"/><path class="cls-4" d="M184.5,171.5l-2.2-.7a4,4,0,0,0-4.1,1l-17.1,17.1a4,4,0,0,0-.8,1.2H166Z"/><path class="cls-5" d="M211,181a1.4,1.4,0,0,0-.3-.8l-.9-.3-8.1-2.7L197,177v8C204.7,185,211,183.2,211,181Z"/><path class="cls-6" d="M170.4,179.6l-9.2,9.2a4,4,0,0,0-1.2,2.8V226a4,4,0,0,0,4,4h72a4,4,0,0,0,4-4V192.9a4,4,0,0,0-2.7-3.8l-54.9-18.3a4,4,0,0,0-4.1,1"/><line class="cls-6" x1="174.6" y1="175.4" x2="174.1" y2="175.9"/><circle class="cls-7" cx="197" cy="178" r="7"/><circle class="cls-4" cx="194" cy="175" r="3"/><circle class="cls-6" cx="197" cy="178" r="7"/><path class="cls-6" d="M197,167a7,7,0,0,1,7-7"/><circle class="cls-8" cx="232.2" cy="195.5" r="1.5"/><circle class="cls-8" cx="202.5" cy="198" r="1.5"/><circle class="cls-8" cx="215.2" cy="193.9" r="1.5"/><circle class="cls-8" cx="230.8" cy="220.7" r="1.5"/></svg>