<svg id="Layer_1" data-name="Layer 1" xmlns="http://www.w3.org/2000/svg" xmlns:xlink="http://www.w3.org/1999/xlink" viewBox="0 0 400 400"><defs><style>.cls-1,.cls-2{opacity:0.8;}.cls-1{fill:url(#linear-gradient);}.cls-2{fill:url(#linear-gradient-2);}.cls-3{fill:#e2eeec;}.cls-4{fill:#ff5c6c;}.cls-5{fill:#fff;}.cls-6{fill:none;}.cls-10,.cls-6{stroke:#7c2f57;stroke-linecap:round;stroke-linejoin:round;stroke-width:2px;}.cls-7{fill:#fd025d;}.cls-8{fill:#c9dfdc;}.cls-9{opacity:0.4;}.cls-10{fill:#ffb56d;}.cls-11{fill:#f93a26;}.cls-12{fill:#db2a26;}</style><linearGradient id="linear-gradient" x1="206" y1="238" x2="236" y2="238" gradientUnits="userSpaceOnUse"><stop offset="0" stop-color="#f93a26"/><stop offset="1" stop-color="#f93a26" stop-opacity="0"/></linearGradient><linearGradient id="linear-gradient-2" x1="236" y1="228" x2="266" y2="228" gradientUnits="userSpaceOnUse"><stop offset="0" stop-color="#fd025d"/><stop offset="1" stop-color="#fd025d" stop-opacity="0"/></linearGradient></defs><title>Food Icons</title><rect class="cls-1" x="206" y="235" width="30" height="6"/><rect class="cls-2" x="236" y="225" width="30" height="6"/><polygon class="cls-3" points="206 223 209 230 239 230 242 223 206 223"/><polygon class="cls-4" points="239 168 209 168 206 175 206 223 242 223 242 175 239 168"/><polygon class="cls-5" points="210 175 213 168 209 168 206 175 206 223 209 230 213 230 210 223 210 175"/><line class="cls-6" x1="227" y1="166" x2="221" y2="166"/><polygon class="cls-7" points="239 168 229 168 230 175.3 230 223 242 223 242 175 239 168"/><polygon class="cls-8" points="229 230 239 230 242 223 230 223 229 230"/><g class="cls-9"><path class="cls-5" d="M224.7,193.1c-7.8-3.1-12-3.5-18.7-1.3V196c6.5-2.3,9.9-2,17.3.8,4.6,1.8,7.9,2.7,11.2,2.7a24.2,24.2,0,0,0,7.5-1.3V194C235.5,196.3,232.1,196,224.7,193.1Z"/><path class="cls-5" d="M242,202c-6.5,2.3-9.9,2-17.3-.8s-12-3.5-18.7-1.3V204c6.5-2.3,9.9-2,17.3.8,4.6,1.8,7.9,2.7,11.2,2.7a24.2,24.2,0,0,0,7.5-1.3Z"/></g><polygon class="cls-6" points="239 168 209 168 206 175 206 223 209 230 239 230 242 223 242 175 239 168"/><rect class="cls-10" x="180.5" y="196.8" width="38" height="8" transform="translate(420 23.4) rotate(96)"/><rect class="cls-10" x="176.6" y="181.5" width="8" height="38" transform="translate(381.1 381) rotate(174)"/><rect class="cls-10" x="190.6" y="192.1" width="38" height="8" transform="translate(445 31.8) rotate(102)"/><rect class="cls-10" x="171" y="190" width="38" height="8" transform="translate(384 4) rotate(90)"/><rect class="cls-10" x="170.5" y="190.1" width="38" height="8" transform="translate(383.6 4.6) rotate(90)"/><rect class="cls-10" x="166" y="177.1" width="8" height="38" transform="translate(377.1 352.6) rotate(168)"/><path class="cls-11" d="M202,200a15,15,0,0,1-24,0H164l7,40h38l7-40Z"/><path class="cls-12" d="M202,200a15.2,15.2,0,0,1-3.3,3.2L196.3,240H209l7-40Z"/><polygon class="cls-5" points="164 200 171 240 175 240 168 200 164 200"/><path class="cls-6" d="M168,223l3,17h38l7-40H202a15,15,0,0,1-24,0H164l1.8,10"/><line class="cls-6" x1="166.8" y1="216" x2="167" y2="217"/></svg>