<svg id="Layer_1" data-name="Layer 1" xmlns="http://www.w3.org/2000/svg" xmlns:xlink="http://www.w3.org/1999/xlink" viewBox="0 0 400 400"><defs><style>.cls-1{fill:url(#linear-gradient);}.cls-2{fill:#f93a26;}.cls-2,.cls-5{stroke:#7c2f57;stroke-linejoin:round;stroke-width:2px;}.cls-11,.cls-2,.cls-5{stroke-linecap:round;}.cls-3{fill:#ffb56d;}.cls-4{fill:#ffe6d2;}.cls-11,.cls-5{fill:none;}.cls-6{fill:#f9ebb4;}.cls-7{fill:#f4d373;}.cls-8{fill:#de777a;}.cls-9{fill:#7c2f57;}.cls-10{fill:#ff9695;}.cls-11{stroke:#fff;stroke-miterlimit:10;stroke-width:4px;}</style><linearGradient id="linear-gradient" x1="167.53" y1="233.8" x2="217.53" y2="233.8" gradientUnits="userSpaceOnUse"><stop offset="0" stop-color="#ffb56d"/><stop offset="1" stop-color="#ffb56d" stop-opacity="0"/></linearGradient></defs><title>Food Icons</title><rect class="cls-1" x="167.5" y="230.8" width="50" height="6"/><path class="cls-2" d="M169.5,165.5a79.8,79.8,0,0,0,0,67.6L242,199.3Z"/><path class="cls-3" d="M168.5,235.8a2,2,0,0,1-2.7-1h0a83.9,83.9,0,0,1,0-71h0a2,2,0,0,1,2.7-1l3.6,1.7a2,2,0,0,1,1,2.7h0a75.9,75.9,0,0,0,0,64.2h0a2,2,0,0,1-1,2.7Z"/><path class="cls-4" d="M166.7,236.6l-.8-1.8a83.8,83.8,0,0,1,0-71l.8-1.8,3.6,1.7-.8,1.8a79.9,79.9,0,0,0,0,67.6l.8,1.8Z"/><path class="cls-5" d="M160,181.3l.4-1.8"/><path class="cls-5" d="M162.2,173.2a84.8,84.8,0,0,1,3.7-9.4h0a2,2,0,0,1,2.7-1l3.6,1.7a2,2,0,0,1,1,2.7h0a75.9,75.9,0,0,0,0,64.2h0a2,2,0,0,1-1,2.7l-3.6,1.7a2,2,0,0,1-2.7-1h0a83.8,83.8,0,0,1-7.2-45.9"/><path class="cls-6" d="M242.8,197.5,181.7,169a2,2,0,0,0-2.6.9c-4.7,8.9-14.7,13.1-14.7,29.4,0,13.6,10.4,19.7,16.4,28.9a2,2,0,0,0,2.5.7l59.5-27.7a2,2,0,0,0,0-3.6Z"/><path class="cls-7" d="M200.3,199c-1.9-7.8-15.1-10.7-25.2-9.5-8.2,1-8.8,9.7-.3,11.3S202.2,206.5,200.3,199Z"/><path class="cls-7" d="M209.8,184.2c-6.5-4.8-16-8.2-21.2-7.7s-7.2,8.3-.5,11,12.5,1.2,16,5.8,5.7,8,9.5,5.8S216.3,189,209.8,184.2Z"/><path class="cls-7" d="M209.7,204.7c-8.1,0-11,6.2-8.7,9.2s11.3,1.5,13.5-2.3S213.3,204.7,209.7,204.7Z"/><path class="cls-7" d="M186.7,213.8c-5.8-1.7-3.9-8.4-9.2-6.7s-3,10.7,4.2,13.7,14.5.8,14.5-2.7S192.5,215.5,186.7,213.8Z"/><path class="cls-7" d="M242.8,197.5l-13.6-6.3c-.4,3.5-4.1,6.3-7.4,6.8-4.8.8-6.8,6.5.7,8.7a14.1,14.1,0,0,1,4.3,2l16.1-7.5a2,2,0,0,0,0-3.6Z"/><path class="cls-8" d="M202.3,208.7a10,10,0,0,0-8.5,15.3l18-8.4A10,10,0,0,0,202.3,208.7Z"/><path class="cls-8" d="M206.5,180.6a10,10,0,0,0,18,8.4Z"/><circle class="cls-9" cx="222.8" cy="203.2" r="1.5"/><circle class="cls-9" cx="198.5" cy="183.3" r="1.5"/><circle class="cls-9" cx="179.3" cy="214" r="1.5"/><circle class="cls-10" cx="216.9" cy="189.6" r="1.5"/><circle class="cls-10" cx="212.2" cy="187.9" r="1.5"/><circle class="cls-10" cx="201.8" cy="212.8" r="1.5"/><circle class="cls-8" cx="185" cy="194.3" r="10"/><path class="cls-10" d="M178,197.3a10,10,0,0,1,15.4-8.4,10,10,0,1,0-13.8,13.8A9.9,9.9,0,0,1,178,197.3Z"/><circle class="cls-5" cx="185" cy="194.3" r="10"/><circle class="cls-10" cx="188.7" cy="197.3" r="1.5"/><circle class="cls-10" cx="180.4" cy="197.5" r="1.5"/><circle class="cls-10" cx="184.8" cy="192.8" r="1.5"/><circle class="cls-10" cx="190.2" cy="190.7" r="1.5"/><circle class="cls-10" cx="179.6" cy="191.1" r="1.5"/><circle class="cls-10" cx="197" cy="217.9" r="1.5"/><path class="cls-10" d="M206.1,185.2l.2.8v.3l.3.9v.2l.5,1.1h0l.6.9v.2l.7.8h.1a10.1,10.1,0,0,0,1.9,1.5,9.9,9.9,0,0,1-.5-9.8l-3.6-1.7v2.2c0,.3,0,.6,0,.9a10,10,0,0,0,.1,1.2Z"/><path class="cls-10" d="M192.5,220.4l.2,1v.3l.3.9.2.3.5.9h.1l1.6-.7a10,10,0,0,1,15.3-10h0a10.1,10.1,0,0,0-1.5-1.8h-.1a10,10,0,0,0-1.9-1.4h-.1l-1-.5H206l-1-.3h-.1l-1.1-.2h-1.4a10,10,0,0,0-9.9,11.4Z"/><path class="cls-5" d="M206.5,180.6a10,10,0,0,0,18,8.4Z"/><path class="cls-5" d="M202.3,208.7a10,10,0,0,0-8.5,15.3l18-8.4A10,10,0,0,0,202.3,208.7Z"/><path class="cls-11" d="M180.9,170.8a43.8,43.8,0,0,1-5.7,7.9c-4.5,5.2-8.7,10.2-8.7,20.6,0,8.8,4.8,14.2,9.8,19.9a68.4,68.4,0,0,1,6.3,7.8"/><path class="cls-5" d="M169.9,182a27.6,27.6,0,0,0-5.5,17.4c0,13.6,10.4,19.7,16.4,28.9a2,2,0,0,0,2.5.7l59.5-27.7a2,2,0,0,0,0-3.6L181.7,169a2,2,0,0,0-2.6.9,31.6,31.6,0,0,1-3.5,5.1"/></svg>