<svg id="Layer_1" data-name="Layer 1" xmlns="http://www.w3.org/2000/svg" xmlns:xlink="http://www.w3.org/1999/xlink" viewBox="0 0 400 400"><defs><style>.cls-1{opacity:0.8;fill:url(#linear-gradient);}.cls-2{fill:#ffd9b5;}.cls-2,.cls-6{stroke:#7c2f57;stroke-linecap:round;stroke-linejoin:round;stroke-width:2px;}.cls-3{fill:#fff;}.cls-4{fill:#f7f9fb;}.cls-5{fill:url(#linear-gradient-2);}.cls-6{fill:none;}.cls-7{fill:url(#linear-gradient-3);}</style><linearGradient id="linear-gradient" x1="219.83" y1="241" x2="249.83" y2="241" gradientUnits="userSpaceOnUse"><stop offset="0" stop-color="#db2a26"/><stop offset="0.97" stop-color="#db2a26" stop-opacity="0"/></linearGradient><linearGradient id="linear-gradient-2" x1="181.33" y1="195.75" x2="219.93" y2="234.35" gradientUnits="userSpaceOnUse"><stop offset="0" stop-color="#f93a26"/><stop offset="1" stop-color="#db2a26"/></linearGradient><linearGradient id="linear-gradient-3" x1="187.7" y1="217.63" x2="214.66" y2="217.63" xlink:href="#linear-gradient-2"/></defs><title>Food Icons</title><rect class="cls-1" x="219.8" y="238" width="30" height="6"/><path class="cls-2" d="M226,180.5a3.3,3.3,0,0,0,3.5-3,3.2,3.2,0,0,0-.3-1.6,5.2,5.2,0,0,0-5.9-8,3,3,0,1,0-3.5,4.9,5.2,5.2,0,0,0,3.1,4.7A3.3,3.3,0,0,0,226,180.5Z"/><path class="cls-2" d="M177.5,183.2a3.3,3.3,0,0,0,3.5-3,3.2,3.2,0,0,0-.3-1.6,5.2,5.2,0,0,0-5.9-8,3,3,0,1,0-3.5,4.9,5.2,5.2,0,0,0,3.1,4.7A3.3,3.3,0,0,0,177.5,183.2Z"/><path class="cls-2" d="M199.5,167.1a3.6,3.6,0,0,0,5.1.4,3.6,3.6,0,0,0,1-1.4,5.7,5.7,0,0,0,1.6-10.8,3.3,3.3,0,1,0-6.5,1.2,5.7,5.7,0,0,0-1.2,6.1A3.6,3.6,0,0,0,199.5,167.1Z"/><path class="cls-2" d="M230.5,180.3a2.4,2.4,0,0,0-2.4-.7,4.2,4.2,0,0,0-3.2-1.1,5.3,5.3,0,0,0-.1-4.9,2.9,2.9,0,0,0-4.4-3.6v-.3a4.3,4.3,0,0,0,.1-1.8,2.5,2.5,0,1,0-3.4-3.7,4.3,4.3,0,0,0-2.2.1,3.2,3.2,0,0,0-3.1-2.4,5.2,5.2,0,0,0-9.5.9,5.5,5.5,0,0,0-2.9-3.1,3.3,3.3,0,1,0-6.5,1.2,5.7,5.7,0,0,0-1.1,1.6l-.3-.2-1-.5a2.6,2.6,0,0,0,.5-1.9,2.6,2.6,0,0,0-3-2.2,2.6,2.6,0,0,0-1.2.5,4.2,4.2,0,0,0-5.2,6,2.4,2.4,0,0,0,.2,2.4,5.2,5.2,0,0,0-1.9.3,3,3,0,1,0-3.5,4.9,5.2,5.2,0,0,0,1.2,3.3h-.1a2.4,2.4,0,0,0-2.1,1.4,4.2,4.2,0,0,0-3.4,2.9,2.6,2.6,0,1,0,1.9,4.8l.7.3a6.5,6.5,0,0,0,.7,2.3,3.8,3.8,0,1,0,6.8,3.4,6.5,6.5,0,0,0,4-2.3h0a6.1,6.1,0,0,0,9.5-5.9,3.3,3.3,0,0,0,.7,1,5.3,5.3,0,1,0,10,3.6,2.8,2.8,0,0,0,2.1-1.6,3.1,3.1,0,0,0,4,3.1,5.3,5.3,0,0,0,5.7.7,3.3,3.3,0,0,0,5.2-2.4,4.2,4.2,0,0,0,5.7-2,2.4,2.4,0,0,0,1.4-4Zm-43.7-9.2a5.1,5.1,0,0,0-.3-1.1h.2l1.4.5h0A3.3,3.3,0,0,0,186.8,171.2Zm-.6,6.2h-.4a3.2,3.2,0,0,0,.2-.9,3.1,3.1,0,0,0-.1-1l.5.7a3.2,3.2,0,0,0,1.5.8l-.9.4Zm24.6-5.6.3-.6.6.3-1,.5Zm-1.6,1.5v-.4l.5-.2ZM195.5,181a6.1,6.1,0,0,0-1-2,3.2,3.2,0,0,0,.2-.9l1.2-.4.5.7a3.2,3.2,0,0,0-.9,2.3Zm13.8,2a3.1,3.1,0,0,0-.6.9h0a2.8,2.8,0,0,0-1.2-2.3l.8-.8a3,3,0,0,0,1.5,1.9Z"/><rect class="cls-3" x="173.6" y="188" width="54" height="3"/><polygon class="cls-4" points="226.6 191 174.6 191 178.6 243 222.6 243 226.6 191"/><path class="cls-5" d="M198.1,191h6v52h-6Zm28.5,0h-3l-4,51.8,3,.2h0l4-52Zm-16.3,0-2,51.9h6l2-51.9h-6Zm-35.7,0,4,52,3-.2-4-51.8Zm13.3,0h-3l2,51.9h6l-2-51.9Z"/><line class="cls-6" x1="230.6" y1="188" x2="170.6" y2="188"/><line class="cls-6" x1="175.1" y1="197" x2="175.2" y2="198"/><polyline class="cls-6" points="175.7 204 178.6 243 222.6 243 226.6 191"/><path class="cls-4" d="M200.6,232c-9.4,0-17-6.7-17-15s7.6-15,17-15,17,6.7,17,15S210,232,200.6,232Z"/><path class="cls-2" d="M181.9,234.7a3.3,3.3,0,0,0-3.3-3.3,3.2,3.2,0,0,0-1.5.4,5.2,5.2,0,0,0-7.5,6.5,3,3,0,1,0,5.2,3,5.2,5.2,0,0,0,4.4-3.5A3.3,3.3,0,0,0,181.9,234.7Z"/><path class="cls-2" d="M157.6,233.9a2.8,2.8,0,1,0-5-2.2,5.7,5.7,0,0,0-3.6,1.8,3.4,3.4,0,1,0-1.8,6.2h.7a5.7,5.7,0,1,0,9.7-5.7Z"/><path class="cls-6" d="M147.1,239.6a3.4,3.4,0,1,1,3.4-3.4"/><path class="cls-6" d="M155.3,235a2.8,2.8,0,1,0-2.8-2.8"/><path class="cls-7" d="M194,211l-1-.5h-1.2l-1.2.2-1.2.5-1,.7-.6.8a1,1,0,0,0-.1.8q.2.7,1.4.9v-1.1h-1a.4.4,0,0,1,.1-.4l.4-.4.6-.4.7-.3h1.2l-1.3.5v.8q0,.3,0,.8v5.2l1.7-.5v-2.3h1a2.5,2.5,0,0,0,1-.6,3.1,3.1,0,0,0,.7-.9,3.3,3.3,0,0,0,.3-1.1,2.8,2.8,0,0,0-.1-1.1A2.4,2.4,0,0,0,194,211Zm-.8,2.4a2.2,2.2,0,0,1-.1.7l-.4.6-.6.3h-.4v-3.6l.9.4a1.6,1.6,0,0,1,.5.9A2.3,2.3,0,0,1,193.3,213.4Zm11.2-3-.4-.4-.5-.2h-.7l-.4.2-.4.3v-.2l-2.1.7v.5h.6v1.8h0v.2h0l-.3.5-.4.4h-.1a3,3,0,0,0,.1-.8,3.8,3.8,0,0,0-.1-.8,2.4,2.4,0,0,0-.3-.7l-.5-.5-.7-.3h-.8l-1,.5a3.1,3.1,0,0,0-.7.9,3.2,3.2,0,0,0-.3,2.3,2.4,2.4,0,0,0,.3.8l.5.5.7.3h.8l.5-.2.5-.3.4-.4.3-.4.7-.3.6-.5v3.6l1.6-.4v-2.7h.7l.5-.2.4-.4.3-.4.2-.4.2-.6v-.7a4,4,0,0,0,0-.7,3.2,3.2,0,0,0-.1-.7Zm-6.3,2.7c0,.2,0,.4,0,.6a.7.7,0,0,0-.4.4.8.8,0,0,0,0,.6v.2l.2.2-.2.5-.3.2q-.3.1-.4-.4a5.2,5.2,0,0,1-.1-1.2,4.4,4.4,0,0,1,.1-1.5.8.8,0,0,1,.5-.6h.3l.2.4A2.4,2.4,0,0,1,198.2,213.1Zm5-1.6v.6a5.2,5.2,0,0,1,0,.7,3.5,3.5,0,0,1-.1.7l-.2.5-.4.3h-.3v-2.2a2.4,2.4,0,0,1,.1-.5v-.4l.2-.3h.4v.7Zm11.3,8-.3-.2h-.5c-.1,0-.1-.1-.1-.3s0-.8,0-1,0-.5,0-.6,0-.3,0-.4a1.9,1.9,0,0,0,0-.2v-.2h0l-.3-.5-.4-.3h-.9l-.5.2-.4.4v-.2l-2.1.7v.5h.6v1.8h0l-.2.5-.3.6-.3.5-.4.3h-.2a.4.4,0,0,1-.1-.3v-3h-2a.9.9,0,0,0-.4-.5h-.6l-.4.3a.5.5,0,0,0-.1.5l.3.4.5.3c0,.1,0,.3,0,.4v1.8h0l-.3.5-.4.4h-.1a3,3,0,0,0,.1-.8,3.8,3.8,0,0,0-.1-.8,2.4,2.4,0,0,0-.3-.7l-.5-.5-.7-.3h-.8l-1,.5a3.1,3.1,0,0,0-.7.9,3.1,3.1,0,0,0-.3,2.2l-.2.5-.5.7-.6.6-.8.4h-.7l-.5-.3-.4-.5-.3-.6a4.6,4.6,0,0,1-.1-.8,6.6,6.6,0,0,1,0-.9l1.3-.6,1.1-.8a3.1,3.1,0,0,0,.7-1,1.4,1.4,0,0,0,.1-1l-.3-.4-.4-.2h-1.1l-1.1.5-.9.8-.7,1a5.1,5.1,0,0,0-.4,1.2l-.6-.2a.8.8,0,0,1-.3-.4.7.7,0,0,1,.1-.5l.5-.6h-.5l-.5.4-.4.5-.2.5a.9.9,0,0,0,0,.5l.3.4.4.3.5.2h.6a4.2,4.2,0,0,0,.2,1.4,3.8,3.8,0,0,0,.5,1.1,3,3,0,0,0,.8.8l1.1.4h1.3l1-.5.8-.7.6-.9h0l.5.5.7.3h.8l.5-.2.5-.3.4-.4.3-.4.7-.3.6-.5.3-.5.2-.6v-.2a10.7,10.7,0,0,0,.2-1.1c.1-.4.1-.7.1-1.1h.5a.4.4,0,0,1,0,.3v.7c0,.2,0,.5,0,.7s0,.4,0,.7a2.7,2.7,0,0,0,.1.6,1.4,1.4,0,0,0,.5.8,1,1,0,0,0,.9.1l.8-.4.7-.7.2-.3v.8l1.6-.5q0-.4,0-.8v-.9c0-.3,0-.6,0-.9V218a1.6,1.6,0,0,1,.2-.8l.4-.3h.2a.5.5,0,0,1,0,.3c0,.2,0,.4,0,.7s0,.5,0,.8,0,.5,0,.8a3,3,0,0,0,.1.6,1.2,1.2,0,0,0,.5.7.9.9,0,0,0,.8.1l.8-.4.6-.6Zm-18.8.5.2-.7.3-.6.5-.3q.3-.1.3.1a1,1,0,0,1,0,.5l-.3.6-.5.5-.6.4Zm6.8.5c0,.2,0,.4,0,.6a.7.7,0,0,0-.4.4.8.8,0,0,0,0,.6v.2l.2.2-.2.5-.3.2q-.3.1-.4-.4a5.2,5.2,0,0,1-.1-1.2,4.4,4.4,0,0,1,.1-1.5.8.8,0,0,1,.5-.6h.3l.2.4A2.4,2.4,0,0,1,202.5,220.5Z"/></svg>