<svg id="Layer_1" data-name="Layer 1" xmlns="http://www.w3.org/2000/svg" xmlns:xlink="http://www.w3.org/1999/xlink" viewBox="0 0 400 400"><defs><style>.cls-1{opacity:0.8;fill:url(#linear-gradient);}.cls-2{fill:#fff;}.cls-3{fill:url(#linear-gradient-2);}.cls-4{fill:#e2eeec;}.cls-5{fill:#c9dfdc;}.cls-6{fill:none;stroke:#7c2f57;stroke-linecap:round;stroke-linejoin:round;stroke-width:2px;}</style><linearGradient id="linear-gradient" x1="207" y1="238.5" x2="237" y2="238.5" gradientUnits="userSpaceOnUse"><stop offset="0" stop-color="#8cb5ad"/><stop offset="1" stop-color="#8cb5ad" stop-opacity="0"/></linearGradient><linearGradient id="linear-gradient-2" x1="197.5" y1="195.31" x2="197.5" y2="152.18" gradientUnits="userSpaceOnUse"><stop offset="0" stop-color="#ffb56d"/><stop offset="1" stop-color="#ffb56d" stop-opacity="0"/></linearGradient></defs><title>Food Icons</title><rect class="cls-1" x="207" y="236" width="30" height="5"/><rect class="cls-2" x="190" y="236" width="20" height="4"/><path class="cls-3" d="M207.5,172h6a3,3,0,0,0,0-6h-10a3,3,0,0,1,0-6h21a3,3,0,0,0,0-6h-44a3,3,0,0,0,0,6h4a3,3,0,0,1,0,6h-14a3,3,0,0,0,0,6h14a3,3,0,0,1,0,6h-4a3,3,0,0,0,0,6h14a3,3,0,0,1,0,6h-5a3,3,0,0,0,0,6h23a3,3,0,0,0,0-6h-2a3,3,0,0,1,0-6h10a3,3,0,0,0,0-6h-13a3,3,0,0,1,0-6Z"/><path class="cls-4" d="M237,206H163a3,3,0,0,0,0,6h7v4a10,10,0,0,0,10,10,10,10,0,0,1,10,10h20a10,10,0,0,1,10-10,10,10,0,0,0,10-10v-4h7a3,3,0,0,0,0-6Z"/><path class="cls-2" d="M164,209a3,3,0,0,1,3-3h-4a3,3,0,0,0,0,6h4A3,3,0,0,1,164,209Z"/><path class="cls-2" d="M184,226a10,10,0,0,1-10-10v-4h-4v4a10,10,0,0,0,10,10,10,10,0,0,1,10,10h4A10,10,0,0,0,184,226Z"/><path class="cls-5" d="M232,209a3,3,0,0,0-3-3h8a3,3,0,0,1,0,6h-8A3,3,0,0,0,232,209Z"/><path class="cls-5" d="M212,226a10,10,0,0,0,10-10v-4h8v4a10,10,0,0,1-10,10,10,10,0,0,0-10,10h-8A10,10,0,0,1,212,226Z"/><path class="cls-6" d="M170,216a10,10,0,0,0,10,10,10,10,0,0,1,10,10"/><path class="cls-6" d="M210,236a10,10,0,0,1,10-10,10,10,0,0,0,10-10v-4h7a3,3,0,0,0,0-6H163a3,3,0,0,0,0,6h7"/><line class="cls-6" x1="220" y1="226" x2="190" y2="226"/><line class="cls-6" x1="217" y1="240" x2="183" y2="240"/><path class="cls-6" d="M170,212h4a2,2,0,0,0,2-2"/><path class="cls-6" d="M230,212h-4a2,2,0,0,1-2-2"/><path class="cls-6" d="M245.7,182.4h0a4.3,4.3,0,0,0-6.1,0L220,202"/></svg>