<svg id="Layer_1" data-name="Layer 1" xmlns="http://www.w3.org/2000/svg" xmlns:xlink="http://www.w3.org/1999/xlink" viewBox="0 0 400 400"><defs><style>.cls-1{opacity:0.8;fill:url(#linear-gradient);}.cls-2,.cls-5{fill:#c9dfdc;}.cls-2,.cls-3,.cls-8{stroke:#7c2f57;stroke-linecap:round;stroke-linejoin:round;stroke-width:2px;}.cls-3{fill:none;}.cls-4{fill:#e2eeec;}.cls-6{fill:#fff;}.cls-7{fill:#f7e5c1;}.cls-8{fill:#ebded7;}</style><linearGradient id="linear-gradient" x1="208" y1="232" x2="248" y2="232" gradientUnits="userSpaceOnUse"><stop offset="0" stop-color="#c9dfdc"/><stop offset="0.99" stop-color="#c9dfdc" stop-opacity="0"/></linearGradient></defs><title>Food Icons</title><rect class="cls-1" x="208" y="229" width="40" height="6"/><path class="cls-2" d="M211,229v2a3,3,0,0,1-3,3H182a3,3,0,0,1-3-3v-2"/><path class="cls-3" d="M231,191.9a9.6,9.6,0,0,1,7.9,1.4,8.4,8.4,0,0,1,3.3,6.9,13.4,13.4,0,0,1-3.3,8.4,14.8,14.8,0,0,1-7.9,5"/><path class="cls-4" d="M166,183h58a3,3,0,0,1,3,3v27a16,16,0,0,1-16,16H179a16,16,0,0,1-16-16V186A3,3,0,0,1,166,183Z"/><path class="cls-5" d="M224,183H204a3,3,0,0,1,3,3v27a16,16,0,0,1-16,16h20a16,16,0,0,0,16-16V186A3,3,0,0,0,224,183Z"/><path class="cls-6" d="M169,213V186a3,3,0,0,1,3-3h-6a3,3,0,0,0-3,3v27a16,16,0,0,0,16,16h6A16,16,0,0,1,169,213Z"/><line class="cls-3" x1="163" y1="197.5" x2="163" y2="196"/><path class="cls-3" d="M163,203.5V213a16,16,0,0,0,16,16h8"/><path class="cls-3" d="M163,190v-4a3,3,0,0,1,3-3h58a3,3,0,0,1,3,3v27a16,16,0,0,1-16,16H193"/><line class="cls-3" x1="227" y1="190" x2="169" y2="190"/><path class="cls-7" d="M214,175h-2v-2a6,6,0,0,0-6-6h-2a6,6,0,0,0-6-6,6,6,0,0,1-6-6,6,6,0,0,0-6,6v6h-2a6,6,0,0,0-6,6v2h-2a6,6,0,0,0-6,6v2h50v-2A6,6,0,0,0,214,175Z"/><path class="cls-6" d="M182,175h2v-2a6,6,0,0,1,6-6h2v-6a6,6,0,0,1,.8-3,6,6,0,0,1-.8-3,6,6,0,0,0-6,6v6h-2a6,6,0,0,0-6,6v2h-2a6,6,0,0,0-6,6v2h6v-2A6,6,0,0,1,182,175Z"/><path class="cls-3" d="M214,175h-2v-2a6,6,0,0,0-6-6h-2a6,6,0,0,0-6-6,6,6,0,0,1-6-6,6,6,0,0,0-6,6v6h-2a6,6,0,0,0-6,6v2h-2a6,6,0,0,0-6,6v2h50v-2A6,6,0,0,0,214,175Z"/><line class="cls-8" x1="188" y1="175" x2="194" y2="175"/><line class="cls-8" x1="186" y1="167" x2="190" y2="167"/><line class="cls-8" x1="206" y1="175" x2="212" y2="175"/><line class="cls-8" x1="200" y1="167" x2="204" y2="167"/></svg>