<svg id="Layer_1" data-name="Layer 1" xmlns="http://www.w3.org/2000/svg" xmlns:xlink="http://www.w3.org/1999/xlink" viewBox="0 0 400 400"><defs><style>.cls-1{fill:url(#linear-gradient);}.cls-2{fill:#f7f9fb;}.cls-3,.cls-6{fill:#9bd178;}.cls-10,.cls-4{fill:#fff;}.cls-5{fill:none;}.cls-5,.cls-6,.cls-7,.cls-8{stroke:#7c2f57;stroke-linecap:round;stroke-linejoin:round;stroke-width:2px;}.cls-7{fill:#76ddac;}.cls-8{fill:#f93a26;}.cls-9{fill:#7c2f57;}.cls-10{opacity:0.7;}</style><linearGradient id="linear-gradient" x1="215.21" y1="238" x2="255.21" y2="238" gradientUnits="userSpaceOnUse"><stop offset="0" stop-color="#9bd178"/><stop offset="0.99" stop-color="#9bd178" stop-opacity="0"/></linearGradient></defs><title>Food Icons</title><rect class="cls-1" x="215.2" y="235" width="40" height="6"/><path class="cls-2" d="M184.8,240h30.4a40,40,0,0,0,24.7-34.9,2,2,0,0,0-2-2.1H162.1a2,2,0,0,0-2,2.1A40,40,0,0,0,184.8,240Z"/><path class="cls-3" d="M190.4,186.8a5.3,5.3,0,0,0-.9-2.6,5.4,5.4,0,0,0-7.4-1.5,5.4,5.4,0,1,0-8.9,5.9,5.4,5.4,0,0,0-1.5,7.4,5.3,5.3,0,0,0,2.1,1.8,5.2,5.2,0,0,0,3,4.5,5.3,5.3,0,0,0,.9,2.6,5.4,5.4,0,0,0,7.4,1.5l8.9-5.9a5.4,5.4,0,0,0,1.5-7.4,5.3,5.3,0,0,0-2.1-1.8,5.2,5.2,0,0,0-3-4.5Z"/><path class="cls-4" d="M186.1,184.6a5.3,5.3,0,0,1,3.1-.9,5.3,5.3,0,0,0-6.6-1.4A5.3,5.3,0,0,1,186.1,184.6Z"/><path class="cls-4" d="M181.6,206.9a5.3,5.3,0,0,1-.9-2.6,5.2,5.2,0,0,1-3-4.5,5.3,5.3,0,0,1-2.1-1.8,5.4,5.4,0,0,1,1.5-7.4,5.3,5.3,0,0,1,4.6-8.3,5.3,5.3,0,0,0-8.6,6.3,5.4,5.4,0,0,0-1.5,7.4,5.3,5.3,0,0,0,2.1,1.8,5.2,5.2,0,0,0,3,4.5,5.3,5.3,0,0,0,5.2,5Z"/><path class="cls-5" d="M173.8,197.8a5.2,5.2,0,0,0,3,4.5,5.3,5.3,0,0,0,.9,2.6,5.4,5.4,0,0,0,7.4,1.5l8.9-5.9a5.4,5.4,0,0,0,1.5-7.4,5.3,5.3,0,0,0-2.1-1.8,5.2,5.2,0,0,0-3-4.5,5.3,5.3,0,0,0-.9-2.6,5.4,5.4,0,0,0-7.4-1.5,5.4,5.4,0,1,0-8.9,5.9,5.4,5.4,0,0,0-2.4,4.9"/><path class="cls-6" d="M231.4,195.6a7,7,0,0,0-9.3-9,18.3,18.3,0,0,0-4-1.7l-6.4,8.5A9.3,9.3,0,0,0,225,206.2l8.3-6.7A18.3,18.3,0,0,0,231.4,195.6Z"/><line class="cls-5" x1="224.9" y1="193.1" x2="216" y2="202.3"/><line class="cls-5" x1="212.7" y1="205.7" x2="209.5" y2="209"/><path class="cls-3" d="M185.6,232.3a5.6,5.6,0,0,1,5.3,3.8h16.8a8.1,8.1,0,0,1,10.1-3.7,10.1,10.1,0,0,1,9.3-6.1h.4a35.8,35.8,0,0,0,6.1-10.2,13.1,13.1,0,0,1-8.6-15.7,8,8,0,0,0-8.6-1.5,9,9,0,0,0-7.6-4.2h-1.4a7.2,7.2,0,0,0-14.2-2.8,9.5,9.5,0,0,0-6.9,4.4,11.6,11.6,0,0,0-16.4,4.5,8.9,8.9,0,0,1-4.4,12,35.8,35.8,0,0,0,1.6,4.5,5.1,5.1,0,0,1,4.2,7.2,35.9,35.9,0,0,0,10.3,9.2A5.6,5.6,0,0,1,185.6,232.3Z"/><path class="cls-4" d="M200.3,186.3a7.3,7.3,0,0,0-7.1,5.8,9.5,9.5,0,0,0-6.9,4.4,11.6,11.6,0,0,0-16.4,4.5,8.8,8.8,0,0,1,.9,3.9l1.1-.9a11.6,11.6,0,0,1,16.4-4.5,9.5,9.5,0,0,1,6.9-4.4,7.2,7.2,0,0,1,11.9-4A7.2,7.2,0,0,0,200.3,186.3Z"/><path class="cls-5" d="M226.2,210a13,13,0,0,1-1.3-9.7,8,8,0,0,0-8.6-1.5,9,9,0,0,0-7.6-4.2h-1.4a7.2,7.2,0,0,0-14.2-2.8,9.5,9.5,0,0,0-6.9,4.4,11.6,11.6,0,0,0-16.4,4.5,8.9,8.9,0,0,1-4.4,12,35.8,35.8,0,0,0,1.6,4.5,5.1,5.1,0,0,1,4.2,7.2,35.9,35.9,0,0,0,10.3,9.2,5.6,5.6,0,0,1,9.3,2.1h16.8a8.1,8.1,0,0,1,10.1-3.7,10.1,10.1,0,0,1,9.3-6.1h.4a35.8,35.8,0,0,0,6.1-10.2"/><rect class="cls-4" x="160" y="203" width="80" height="4" rx="2" ry="2"/><line class="cls-5" x1="180.9" y1="203" x2="179.7" y2="203"/><path class="cls-6" d="M215.3,168.8c-7.5,1.4-10.6,8-7,14.7C215.9,182.1,219,175.5,215.3,168.8Z"/><path class="cls-6" d="M216.9,219.3a12,12,0,0,1,16.7-3.2"/><path class="cls-6" d="M165.4,213a10.3,10.3,0,0,1,14,3.8"/><path class="cls-7" d="M195.9,196.5a6,6,0,0,1,8.2,2.2"/><path class="cls-8" d="M195.7,212.4a6,6,0,0,0-9.9,6.8"/><path class="cls-8" d="M209.1,227.3a6,6,0,1,0-10.2-6.3"/><path class="cls-8" d="M198.9,190.9a6,6,0,1,0-11.9-1.6"/><circle class="cls-9" cx="196.1" cy="169.5" r="1.5"/><circle class="cls-9" cx="176.8" cy="167.8" r="1.5"/><circle class="cls-9" cx="206.3" cy="153.3" r="1.5"/><path class="cls-10" d="M160,203c0,16.6,11.2,30,25,30s25-13.4,25-30Z"/><path class="cls-5" d="M172.7,203H162.1a2,2,0,0,0-2,2.1A40,40,0,0,0,184.8,240h30.4a40,40,0,0,0,24.7-34.9,2,2,0,0,0-2-2.1H187"/></svg>