<svg id="Layer_1" data-name="Layer 1" xmlns="http://www.w3.org/2000/svg" xmlns:xlink="http://www.w3.org/1999/xlink" viewBox="0 0 400 400"><defs><style>.cls-1{opacity:0.8;fill:url(#linear-gradient);}.cls-2{fill:#ffb56d;}.cls-3{fill:url(#linear-gradient-2);}.cls-4{fill:#fff;}.cls-10,.cls-11,.cls-12,.cls-13,.cls-5,.cls-6,.cls-7,.cls-8,.cls-9{fill:none;stroke-linecap:round;stroke-linejoin:round;stroke-width:2px;}.cls-5{stroke:#7c2f57;}.cls-6{stroke:#ffd9b5;}.cls-7{stroke:#ffbdbd;}.cls-8{stroke:#b1e7ff;}.cls-9{stroke:#b2fce3;}.cls-10{stroke:#77e2dd;}.cls-11{stroke:#fef8de;}.cls-12{stroke:#fff;}.cls-13{stroke:#76ddac;}</style><linearGradient id="linear-gradient" x1="200" y1="238" x2="250" y2="238" gradientUnits="userSpaceOnUse"><stop offset="0" stop-color="#ff5c6c"/><stop offset="0.98" stop-color="#ff5c6c" stop-opacity="0"/></linearGradient><linearGradient id="linear-gradient-2" x1="163.83" y1="162.24" x2="218.83" y2="222.24" gradientUnits="userSpaceOnUse"><stop offset="0" stop-color="#ff9695"/><stop offset="0.96" stop-color="#ff5c6c"/></linearGradient></defs><title>Food Icons</title><rect class="cls-1" x="200" y="235" width="50" height="6"/><path class="cls-2" d="M236.8,184.4a7.6,7.6,0,0,0-4.2-.1,7.5,7.5,0,0,0-2.5,1.2,1.9,1.9,0,0,1-2.2,0,7.5,7.5,0,0,0-5.2-1.4,1.9,1.9,0,0,1-1.9-1.1,7.5,7.5,0,0,0-3.8-3.8,1.9,1.9,0,0,1-1.1-1.9,7.5,7.5,0,0,0-1.4-5.2,1.9,1.9,0,0,1,0-2.2,7.5,7.5,0,0,0,1.2-2.5,7.6,7.6,0,0,0-.1-4.2h0a40,40,0,1,0,21.2,21.2ZM200,212a12,12,0,1,1,12-12A12,12,0,0,1,200,212Z"/><path class="cls-3" d="M232.6,184.3a7.5,7.5,0,0,0-2.5,1.2,1.9,1.9,0,0,1-2.2,0,7.5,7.5,0,0,0-5.2-1.4,1.9,1.9,0,0,1-1.9-1.1,7.5,7.5,0,0,0-3.8-3.8,1.9,1.9,0,0,1-1.1-1.9,7.5,7.5,0,0,0-1.4-5.2,1.9,1.9,0,0,1,0-2.2,7.5,7.5,0,0,0,1.2-2.5,7.6,7.6,0,0,0-.1-4.2,40,40,0,0,0-37.3,70.4,15.8,15.8,0,0,0,15.6,1h.1a11.4,11.4,0,0,1,8.8-.6,15.1,15.1,0,0,0,18.2-7.1,12,12,0,0,1,4.8-5,11.8,11.8,0,0,0,6.3-10.4q0-.4,0-.8a9.7,9.7,0,0,1,2-6.8l.4-.5a19.2,19.2,0,0,0,2.3-18.9A7.6,7.6,0,0,0,232.6,184.3ZM200,212a12,12,0,1,1,12-12A12,12,0,0,1,200,212Z"/><path class="cls-4" d="M209.8,193.2a12,12,0,0,1-16.7,16.7c-.2,2.9,1.9,4.2,3.9,5.1s4.1-.2,5.8-.2,5.1.7,7.3-3c.8-1.3,3.3-2.6,3.9-4.1a9.1,9.1,0,0,0,.5-4.1c0-1.1,1.1-3.3.8-5.4S212.8,193,209.8,193.2Z"/><path class="cls-4" d="M163.8,204.4a49.5,49.5,0,0,1,2.3-12.7c1-3.4,1.2-6.7,3-9.7s4.1-4.5,6.1-6.6,5.4-5.7,9-7.6,5.2-1.4,8.1-2.2,6.6-2.6,10.3-2.6,9.4,3.3,13.4,2.3a7.9,7.9,0,0,0-.3-2h0a40,40,0,0,0-42.4,66.6c1-6.1-3.6-7-6.6-12.7A25.6,25.6,0,0,1,163.8,204.4Z"/><path class="cls-5" d="M164.8,181a40,40,0,1,0,72,3.4h0a7.6,7.6,0,0,0-4.2-.1,7.5,7.5,0,0,0-2.5,1.2,1.9,1.9,0,0,1-2.2,0,7.5,7.5,0,0,0-5.2-1.4,1.9,1.9,0,0,1-1.9-1.1,7.5,7.5,0,0,0-3.8-3.8,1.9,1.9,0,0,1-1.1-1.9,7.5,7.5,0,0,0-1.4-5.2,1.9,1.9,0,0,1,0-2.2,7.5,7.5,0,0,0,1.2-2.5,7.6,7.6,0,0,0-.1-4.2h0a40,40,0,0,0-39.9,5m-5.8,5.4-1.1,1.3M200,212a12,12,0,1,1,12-12A12,12,0,0,1,200,212Z"/><line class="cls-6" x1="226.7" y1="201" x2="224.1" y2="200.8"/><line class="cls-6" x1="171.3" y1="210.2" x2="168.8" y2="210.1"/><line class="cls-7" x1="204.4" y1="177.9" x2="203.4" y2="180.2"/><line class="cls-8" x1="219.8" y1="218.7" x2="219.6" y2="216.2"/><line class="cls-9" x1="182.3" y1="192" x2="180.6" y2="193.9"/><line class="cls-9" x1="208.6" y1="222.4" x2="206.9" y2="224.2"/><line class="cls-10" x1="190.5" y1="175.4" x2="188.7" y2="173.5"/><line class="cls-11" x1="171.4" y1="187" x2="171.3" y2="184.5"/><line class="cls-11" x1="225.8" y1="191.4" x2="225.6" y2="188.9"/><line class="cls-12" x1="180.5" y1="209.9" x2="182.3" y2="211.7"/><line class="cls-13" x1="194.2" y1="223.9" x2="191.8" y2="223.2"/></svg>