<svg id="Layer_1" data-name="Layer 1" xmlns="http://www.w3.org/2000/svg" xmlns:xlink="http://www.w3.org/1999/xlink" viewBox="0 0 400 400"><defs><style>.cls-1{fill:#ffd062;}.cls-1,.cls-3{fill-rule:evenodd;}.cls-2,.cls-3,.cls-8{fill:none;stroke-linecap:round;stroke-linejoin:round;stroke-width:2px;}.cls-2{stroke:#ffeaca;}.cls-3,.cls-8{stroke:#7c2f57;}.cls-4{opacity:0.8;fill:url(#linear-gradient);}.cls-5{fill:#ffb56d;}.cls-6{fill:#f28840;}.cls-7{fill:#fff;}</style><linearGradient id="linear-gradient" x1="209.03" y1="225.99" x2="249.03" y2="225.99" gradientUnits="userSpaceOnUse"><stop offset="0" stop-color="#fe7100"/><stop offset="0.98" stop-color="#fe7100" stop-opacity="0"/></linearGradient></defs><title>Food Icons</title><path class="cls-1" d="M193.5,213h-30a15,15,0,0,0,30,0Z"/><line class="cls-2" x1="193.5" y1="213" x2="163.5" y2="213"/><line class="cls-2" x1="178.5" y1="228" x2="178.5" y2="213"/><line class="cls-2" x1="189.1" y1="223.6" x2="178.5" y2="213"/><line class="cls-2" x1="167.9" y1="223.6" x2="178.5" y2="213"/><path class="cls-3" d="M193.5,213a15,15,0,0,1-30,0"/><rect class="cls-4" x="209" y="223" width="40" height="6"/><path class="cls-5" d="M169.6,195.8c-5.4-7.5-15.1-9.5-24.3-4.3A20,20,0,0,0,153,203a20,20,0,0,0-7.8,11.5c9.2,5.3,18.9,3.2,24.3-4.3a3,3,0,0,1,4.7-.2c21.3,25,51.7,23.9,72.1-3.4a6.1,6.1,0,0,0,0-7.3c-20.5-27.3-50.9-28.4-72.1-3.4A3,3,0,0,1,169.6,195.8Z"/><path class="cls-6" d="M169.6,210.2a3,3,0,0,1,4.7-.2c21.3,25,51.7,23.9,72.1-3.4a6.1,6.1,0,0,0,1.2-4.4l-2.5.8c-3.1,1.2-4.4,1.2-7.5,0s-4.4-1.2-7.5,0-4.4,1.2-7.5,0-4.4-1.2-7.5,0-4.4,1.2-7.5,0-4.4-1.2-7.5,0-4.4,1.2-7.5,0-4.4-1.2-7.5,0-4.4,1.2-7.5,0-4.4-1.2-7.5,0-4.4,1.2-7.5,0-4.4-1.2-7.5,0a11.8,11.8,0,0,1-3.1.9,20.4,20.4,0,0,0-6.6,10.6C154.5,219.7,164.2,217.7,169.6,210.2Z"/><path class="cls-7" d="M145.3,191.5l1.7,3.6,1.3-.6c7.5-4.3,15.2-3.7,20.8.6C163.6,188.2,154.2,186.4,145.3,191.5Z"/><path class="cls-7" d="M172.6,198.8a3,3,0,0,0,4.7.2c18.7-22,44.5-23.8,64.3-5.4-20.2-21.5-47.6-20.8-67.3,2.4a3,3,0,0,1-3.4.8A18.6,18.6,0,0,1,172.6,198.8Z"/><path class="cls-7" d="M152.9,203.2a20,20,0,0,0-7.6,11.3,24,24,0,0,0,3.4,1.6,20,20,0,0,1,6.3-9.3,2.7,2.7,0,0,0,1-2.1v-1.5Z"/><path class="cls-7" d="M177.3,213a2.9,2.9,0,0,0-1-.7l2.9,2.9Z"/><path class="cls-8" d="M183.4,187.2a59.7,59.7,0,0,0-9.1,8.7,3,3,0,0,1-4.7-.2c-5.4-7.5-15.1-9.5-24.3-4.3A20,20,0,0,0,153,203a20,20,0,0,0-7.8,11.5c9.2,5.3,18.9,3.2,24.3-4.3a3,3,0,0,1,4.7-.2c21.3,25,51.7,23.9,72.1-3.4a6.1,6.1,0,0,0,0-7.3c-15.1-20.1-35.5-26-53.7-17.7"/><path class="cls-8" d="M188.3,183.9l-.7.4"/><path class="cls-8" d="M225.5,187a22.6,22.6,0,0,0,0,32"/><line class="cls-8" x1="228" y1="194.9" x2="232" y2="198.9"/><line class="cls-8" x1="232" y1="194.9" x2="228" y2="198.9"/><line class="cls-8" x1="153" y1="203" x2="156.5" y2="203"/><path class="cls-5" d="M212,215.7a8,8,0,1,1,0-11.3"/><path class="cls-7" d="M202.7,206.4a8,8,0,0,1,9.3-1.5v-.5a8,8,0,0,0-11.3,11.3l1.1.9A8,8,0,0,1,202.7,206.4Z"/><path class="cls-8" d="M212,215.7a8,8,0,1,1,0-11.3"/><line class="cls-8" x1="212" y1="208.1" x2="209" y2="208.1"/><line class="cls-8" x1="212" y1="212.1" x2="209" y2="212.1"/><line class="cls-8" x1="173.2" y1="201" x2="170.2" y2="201"/><line class="cls-8" x1="173.2" y1="205" x2="170.2" y2="205"/><circle class="cls-6" cx="195.9" cy="190.1" r="1.5"/><circle class="cls-6" cx="201.4" cy="195.8" r="1.5"/><circle class="cls-6" cx="216.4" cy="186.4" r="1.5"/><path class="cls-1" d="M193.5,213h-30a15,15,0,0,0,30,0Z"/><line class="cls-2" x1="193.5" y1="213" x2="163.5" y2="213"/><line class="cls-2" x1="178.5" y1="228" x2="178.5" y2="213"/><line class="cls-2" x1="189.1" y1="223.6" x2="178.5" y2="213"/><line class="cls-2" x1="167.9" y1="223.6" x2="178.5" y2="213"/><path class="cls-3" d="M193.5,213a15,15,0,0,1-30,0"/><path class="cls-1" d="M202.5,213h-30a15,15,0,0,0,30,0Z"/><line class="cls-2" x1="202.5" y1="213" x2="172.5" y2="213"/><line class="cls-2" x1="187.5" y1="228" x2="187.5" y2="213"/><line class="cls-2" x1="198.1" y1="223.6" x2="187.5" y2="213"/><line class="cls-2" x1="176.9" y1="223.6" x2="187.5" y2="213"/><path class="cls-3" d="M202.5,213a15,15,0,0,1-30,0"/></svg>