<svg id="Layer_1" data-name="Layer 1" xmlns="http://www.w3.org/2000/svg" xmlns:xlink="http://www.w3.org/1999/xlink" viewBox="0 0 400 400"><defs><style>.cls-1,.cls-5{opacity:0.8;}.cls-1{fill:url(#linear-gradient);}.cls-2{fill:url(#linear-gradient-2);}.cls-3{fill:#61c68d;}.cls-4{fill:none;stroke:#7c2f57;stroke-linecap:round;stroke-linejoin:round;stroke-width:2px;}.cls-5{fill:url(#linear-gradient-3);}.cls-6{fill:url(#linear-gradient-4);}.cls-11,.cls-7{fill:#fff;}.cls-7{opacity:0.4;}.cls-8{fill:#7c2f57;opacity:0.2;}.cls-9{fill:#ffd580;}.cls-10{fill:#ffb56d;}.cls-11{opacity:0.6;}</style><linearGradient id="linear-gradient" x1="231" y1="231" x2="271" y2="231" gradientUnits="userSpaceOnUse"><stop offset="0" stop-color="#61c68d"/><stop offset="1" stop-color="#61c68d" stop-opacity="0"/></linearGradient><linearGradient id="linear-gradient-2" x1="220.39" y1="210.61" x2="245.54" y2="235.77" gradientUnits="userSpaceOnUse"><stop offset="0.01" stop-color="#9bd178"/><stop offset="1" stop-color="#61c68d"/></linearGradient><linearGradient id="linear-gradient-3" x1="183" y1="237" x2="223" y2="237" xlink:href="#linear-gradient"/><linearGradient id="linear-gradient-4" x1="162.3" y1="181.7" x2="213.53" y2="232.93" gradientUnits="userSpaceOnUse"><stop offset="0" stop-color="#beeaa4"/><stop offset="1" stop-color="#9bd178"/></linearGradient></defs><title>Food Icons</title><rect class="cls-1" x="231" y="228" width="40" height="6"/><path class="cls-2" d="M189.8,219l10.9,2a31.4,31.4,0,0,1,13.7,6.3A27,27,0,0,0,258,206H179A13.2,13.2,0,0,0,189.8,219Z"/><path class="cls-3" d="M248.9,206a25,25,0,0,1-35.2,20.8l.6.5A27,27,0,0,0,258,206Z"/><path class="cls-4" d="M179,206a13.2,13.2,0,0,0,10.8,13l10.9,2a31.4,31.4,0,0,1,13.7,6.3A27,27,0,0,0,258,206H216"/><circle class="cls-3" cx="236.5" cy="214.1" r="1.5"/><circle class="cls-3" cx="228.3" cy="213.3" r="1.5"/><circle class="cls-3" cx="218.3" cy="220.1" r="1.5"/><rect class="cls-5" x="183" y="234" width="40" height="6"/><path class="cls-3" d="M204.3,195.4a31.4,31.4,0,0,1-6.3-13.7L196,171.2a13.4,13.4,0,0,0-11.4-11.1A13.2,13.2,0,0,0,170,170.8l-2,10.9a31.4,31.4,0,0,1-6.3,13.7,27,27,0,1,0,42.6,0Z"/><path class="cls-6" d="M183,235a23,23,0,0,1-23-23,22.7,22.7,0,0,1,4.9-14.1,35.1,35.1,0,0,0,7.1-15.4l2-10.9a9.2,9.2,0,0,1,9-7.5h1.1a9.5,9.5,0,0,1,8,7.8l1.9,10.6a35.1,35.1,0,0,0,7.1,15.4A22.7,22.7,0,0,1,206,212,23,23,0,0,1,183,235Z"/><path class="cls-7" d="M197.9,181.7,196,171.2a13.4,13.4,0,0,0-11.4-11.1A13.2,13.2,0,0,0,170,170.8l-2,10.9a31.4,31.4,0,0,1-6.3,13.7,27,27,0,0,0,7.3,39.7L198.2,183Z"/><circle class="cls-8" cx="186" cy="215" r="13"/><path class="cls-4" d="M158.6,200.4a27,27,0,1,0,45.7-5.1,31.4,31.4,0,0,1-6.3-13.7L196,171.2a13.4,13.4,0,0,0-11.4-11.1A13.2,13.2,0,0,0,170,170.8l-2,10.9a29.5,29.5,0,0,1-2.8,8.1"/><circle class="cls-9" cx="183" cy="212" r="12"/><path class="cls-10" d="M189.8,202.2a12,12,0,0,1-16.7,16.7,12,12,0,1,0,16.7-16.7Z"/><ellipse class="cls-11" cx="179.5" cy="208.2" rx="5.2" ry="3.9" transform="translate(-94.6 229.3) rotate(-53.6)"/><path class="cls-4" d="M172.7,205.8a12,12,0,1,0,4.1-4.1"/><path class="cls-4" d="M162.2,194.7l-.5.6"/></svg>