<svg id="Layer_1" data-name="Layer 1" xmlns="http://www.w3.org/2000/svg" xmlns:xlink="http://www.w3.org/1999/xlink" viewBox="0 0 400 400"><defs><style>.cls-1,.cls-2{opacity:0.8;}.cls-1{fill:url(#linear-gradient);}.cls-2{fill:url(#linear-gradient-2);}.cls-3{fill:#fe7100;}.cls-4{fill:#ed4f00;}.cls-5,.cls-8{fill:none;stroke-linecap:round;stroke-linejoin:round;stroke-width:2px;}.cls-5{stroke:#7c2f57;}.cls-6{fill:#ffb56d;}.cls-7{fill:#ffd580;}.cls-8{stroke:#fff6b3;}.cls-9{fill:#b1db95;}.cls-10{fill:#9bd178;}.cls-11{fill:#beeaa4;}.cls-12{fill:#fff;}</style><linearGradient id="linear-gradient" x1="184.84" y1="229.57" x2="224.84" y2="229.57" gradientUnits="userSpaceOnUse"><stop offset="0" stop-color="#9bd178"/><stop offset="0.99" stop-color="#9bd178" stop-opacity="0"/></linearGradient><linearGradient id="linear-gradient-2" x1="224.84" y1="229.57" x2="264.84" y2="229.57" gradientUnits="userSpaceOnUse"><stop offset="0" stop-color="#fe7100"/><stop offset="0.98" stop-color="#fe7100" stop-opacity="0"/></linearGradient></defs><title>Food Icons</title><rect class="cls-1" x="184.8" y="226.6" width="40" height="6"/><rect class="cls-2" x="224.8" y="226.6" width="40" height="6"/><path class="cls-3" d="M207.8,224.1a25.4,25.4,0,0,0,35.9,0l-35.9-35.9A25.4,25.4,0,0,0,207.8,224.1Z"/><path class="cls-4" d="M207.8,219a25.3,25.3,0,0,1-7.3-15.4,25.4,25.4,0,0,0,43.2,20.5l-2.7-2.7A25.4,25.4,0,0,1,207.8,219Z"/><path class="cls-5" d="M207.8,224.1a25.4,25.4,0,0,0,35.9,0l-35.9-35.9A25.4,25.4,0,0,0,207.8,224.1Z"/><ellipse class="cls-6" cx="225.8" cy="206.2" rx="14.2" ry="25.4" transform="translate(-79.6 220) rotate(-45)"/><path class="cls-7" d="M220.6,186.5c-5.2-1.6-9.9-1.1-12.7,1.7-5.6,5.6-2,18.1,7.9,28a37.7,37.7,0,0,0,15.3,9.6Z"/><path class="cls-5" d="M205.4,197.8c-.6-3.9.2-7.3,2.4-9.6,5.6-5.6,18.1-2,28,7.9s13.5,22.5,7.9,28-18.1,2-28-7.9"/><line class="cls-8" x1="210.7" y1="191.1" x2="240.9" y2="221.3"/><line class="cls-8" x1="218.6" y1="213.4" x2="233" y2="199"/><line class="cls-8" x1="240.6" y1="210.1" x2="211" y2="202.2"/><line class="cls-8" x1="229.7" y1="220.9" x2="221.9" y2="191.4"/><path class="cls-9" d="M197.9,188.4a17.2,17.2,0,0,0-11.5-1.4,22.2,22.2,0,0,1-9.1,0,17.2,17.2,0,0,0-11.5,1.4c-9.6,4.9-12.8,18.1-7.1,29.5,4.8,9.7,14.5,15,23.2,13.4,8.7,1.6,18.4-3.7,23.2-13.4C210.7,206.5,207.5,193.3,197.9,188.4Z"/><path class="cls-10" d="M171.3,187a22.2,22.2,0,0,0,7.6.3l-1.6-.3a18,18,0,0,0-6.8-.1Z"/><path class="cls-10" d="M197.9,188.4a17.1,17.1,0,0,0-10.7-1.5,16.6,16.6,0,0,1,4.7,1.5c9.6,4.9,12.8,18.1,7.1,29.5-3.7,7.5-10.3,12.3-17.1,13.4,8.7,1.5,18.3-3.7,23.1-13.4C210.7,206.5,207.5,193.3,197.9,188.4Z"/><path class="cls-10" d="M175.8,231.3h-.1l3.1.3Z"/><ellipse class="cls-11" cx="170.5" cy="203.1" rx="9.6" ry="7.1"/><path class="cls-10" d="M170.2,168.4c-1.2,7.7,4,12.9,11.6,11.6C183.1,172.4,177.9,167.2,170.2,168.4Z"/><path class="cls-12" d="M174.2,168.4h.1a12.7,12.7,0,0,0-4.1,0c-1.2,7.6,3.9,12.8,11.5,11.7C176.4,179.2,173.2,174.6,174.2,168.4Z"/><path class="cls-5" d="M172.6,177.4c2.1,2.2,5.4,3.3,9.3,2.6,1.2-7.7-4-12.9-11.6-11.6"/><path class="cls-12" d="M164.7,217.9c-5.7-11.4-2.5-24.7,7.1-29.5a16.6,16.6,0,0,1,4.7-1.5,17.1,17.1,0,0,0-10.7,1.5c-9.6,4.9-12.8,18.1-7.1,29.5,4.8,9.7,14.4,14.9,23.1,13.4C174.9,230.2,168.4,225.4,164.7,217.9Z"/><path class="cls-5" d="M156.2,201.8l-.2,1.2"/><path class="cls-5" d="M156.1,209.7a26.9,26.9,0,0,0,2.6,8.3c4.8,9.7,14.5,15,23.2,13.4,8.7,1.6,18.4-3.7,23.2-13.4,5.7-11.4,2.5-24.7-7.1-29.5a17.2,17.2,0,0,0-11.5-1.4,22.2,22.2,0,0,1-9.1,0,17,17,0,0,0-18.9,8.8"/><path class="cls-5" d="M187.5,192.7a14.8,14.8,0,0,1-11.4,0"/><path class="cls-5" d="M181.8,190.2a10,10,0,0,1,10-10"/></svg>