<svg id="Layer_1" data-name="Layer 1" xmlns="http://www.w3.org/2000/svg" xmlns:xlink="http://www.w3.org/1999/xlink" viewBox="0 0 400 400"><defs><style>.cls-1{opacity:0.8;fill:url(#linear-gradient);}.cls-2{fill:#ffd9b5;}.cls-3{fill:#fff;}.cls-4{fill:none;stroke:#7c2f57;stroke-linecap:round;stroke-linejoin:round;stroke-width:2px;}.cls-5{fill:#a84747;}.cls-6{fill:#d35b5b;}.cls-7{fill:#efcee7;}</style><linearGradient id="linear-gradient" x1="209.33" y1="237.5" x2="249.33" y2="237.5" gradientUnits="userSpaceOnUse"><stop offset="0" stop-color="#ffb56d"/><stop offset="0.98" stop-color="#ffb56d" stop-opacity="0"/></linearGradient></defs><title>Food Icons</title><rect class="cls-1" x="209.3" y="234.5" width="40" height="6"/><path class="cls-2" d="M223,201.5H173a3,3,0,0,0,0,6h2l4.5,28.6a4,4,0,0,0,4,3.4h29.2a4,4,0,0,0,4-3.4l4.5-28.6h2a3,3,0,0,0,0-6Z"/><path class="cls-3" d="M185.5,236.1,181,207.5h-2a3,3,0,0,1,0-6h-6a3,3,0,0,0,0,6h2l4.5,28.6a4,4,0,0,0,4,3.4h6A4,4,0,0,1,185.5,236.1Z"/><line class="cls-4" x1="176.5" y1="217.3" x2="176.7" y2="218.4"/><path class="cls-4" d="M177.6,224l1.9,12.1a4,4,0,0,0,4,3.4h29.2a4,4,0,0,0,4-3.4l4.5-28.6h2a3,3,0,0,0,0-6H173a3,3,0,0,0,0,6h2l.6,4.1"/><path class="cls-5" d="M183,191.5h30a10,10,0,0,1,10,10v0a0,0,0,0,1,0,0H173a0,0,0,0,1,0,0v0A10,10,0,0,1,183,191.5Z"/><path class="cls-6" d="M189,191.5h-6a10,10,0,0,0-10,10h6A10,10,0,0,1,189,191.5Z"/><path class="cls-4" d="M183,191.5h30a10,10,0,0,1,10,10v0a0,0,0,0,1,0,0H173a0,0,0,0,1,0,0v0A10,10,0,0,1,183,191.5Z"/><path class="cls-7" d="M215,179.5h-4a6,6,0,0,0,0-12h-8a6,6,0,0,0,0-12h-4a6,6,0,0,1-6-6,6,6,0,0,0-6,6v6a6,6,0,0,0,6,6h-8a6,6,0,0,0,0,12h-4a6,6,0,0,0,0,12h34a6,6,0,0,0,0-12Z"/><path class="cls-3" d="M193,167.5h6a6,6,0,0,1-6-6v-6a6,6,0,0,1,.8-3,6,6,0,0,1-.8-3,6,6,0,0,0-6,6v6A6,6,0,0,0,193,167.5Z"/><path class="cls-3" d="M185,173.5a6,6,0,0,1,6-6h-6a6,6,0,0,0,0,12h6A6,6,0,0,1,185,173.5Z"/><path class="cls-3" d="M181,185.5a6,6,0,0,1,6-6h-6a6,6,0,0,0,0,12h6A6,6,0,0,1,181,185.5Z"/><path class="cls-4" d="M215,179.5h-4a6,6,0,0,0,0-12h-8a6,6,0,0,0,0-12h-4a6,6,0,0,1-6-6,6,6,0,0,0-6,6v6a6,6,0,0,0,6,6h-8a6,6,0,0,0,0,12h-4a6,6,0,0,0,0,12h34a6,6,0,0,0,0-12Z"/><line class="cls-4" x1="221" y1="207.5" x2="192" y2="207.5"/><line class="cls-4" x1="211" y1="179.5" x2="196" y2="179.5"/><path class="cls-3" d="M198,217.3c-6.9-6-14.4,4,0,11.8C212.4,221.3,204.9,211.3,198,217.3Z"/></svg>