<svg id="Layer_1" data-name="Layer 1" xmlns="http://www.w3.org/2000/svg" xmlns:xlink="http://www.w3.org/1999/xlink" viewBox="0 0 400 400"><defs><style>.cls-1{fill:url(#linear-gradient);}.cls-2{fill:#ffd9b5;}.cls-3{fill:#ffb56d;}.cls-4{fill:#f28840;opacity:0.7;}.cls-5{fill:#fff;}.cls-6{fill:none;stroke:#7c2f57;stroke-linecap:round;stroke-linejoin:round;stroke-width:2px;}</style><linearGradient id="linear-gradient" x1="230.5" y1="231" x2="270.5" y2="231" gradientUnits="userSpaceOnUse"><stop offset="0" stop-color="#ffbe88"/><stop offset="1" stop-color="#ffbe88" stop-opacity="0"/></linearGradient></defs><title>Food Icons</title><rect class="cls-1" x="230.5" y="228" width="40" height="6"/><path class="cls-2" d="M231.8,202.9a9.1,9.1,0,0,1,4.6-7.9v-5.4a3,3,0,0,0-2.1-2.8L184,170a4,4,0,0,0-4.1,1l-16.5,16.5c-6.9,11.9-7.3,30.7-1.2,43.3a4,4,0,0,0,3.6,2.2h9.1a7.3,7.3,0,0,1,13.5,0h44.9a3,3,0,0,0,3-3V210.8A9.1,9.1,0,0,1,231.8,202.9Z"/><circle class="cls-3" cx="214.7" cy="199.8" r="5.5"/><circle class="cls-3" cx="219.8" cy="220.5" r="3.5"/><circle class="cls-3" cx="172.3" cy="198.5" r="3.5"/><path class="cls-4" d="M211.2,201.8a5.5,5.5,0,0,1,8.2-4.7,5.5,5.5,0,1,0-7.5,7.5A5.4,5.4,0,0,1,211.2,201.8Z"/><circle class="cls-3" cx="190.8" cy="212.1" r="7.3"/><path class="cls-4" d="M185.5,214.1a7.3,7.3,0,0,1,11.3-6.1,7.3,7.3,0,1,0-10.1,10.1A7.3,7.3,0,0,1,185.5,214.1Z"/><path class="cls-3" d="M179.9,171l-16.5,16.5h72.9L184,170A4,4,0,0,0,179.9,171Z"/><path class="cls-5" d="M186.2,170.7,184,170a4,4,0,0,0-4.1,1l-16.5,16.5h6L185.9,171Z"/><path class="cls-6" d="M169.6,181.3l-6.2,6.2c-6.9,11.9-7.3,30.7-1.2,43.3a4,4,0,0,0,3.6,2.2h9.1a7.3,7.3,0,0,1,13.5,0h44.9a3,3,0,0,0,3-3V210.8a9.1,9.1,0,0,1,0-15.8v-5.4a3,3,0,0,0-2.1-2.8L184,170a4,4,0,0,0-4.1,1l-3.1,3.1"/><line class="cls-6" x1="173.7" y1="177.2" x2="173.2" y2="177.7"/></svg>