<svg id="Layer_1" data-name="Layer 1" xmlns="http://www.w3.org/2000/svg" xmlns:xlink="http://www.w3.org/1999/xlink" viewBox="0 0 400 400"><defs><style>.cls-1{fill:none;}.cls-1,.cls-8{stroke:#7c2f57;stroke-linecap:round;stroke-linejoin:round;stroke-width:2px;}.cls-2{fill:#aa5991;}.cls-3,.cls-7,.cls-9{fill:#7c2f57;}.cls-3{opacity:0.3;}.cls-4{fill:#fff;}.cls-5{opacity:0.8;fill:url(#linear-gradient);}.cls-6{fill:#8e4975;}.cls-7{opacity:0.7;}.cls-8{fill:#ffd9b5;}</style><linearGradient id="linear-gradient" x1="205" y1="238" x2="245" y2="238" gradientUnits="userSpaceOnUse"><stop offset="0" stop-color="#7c2f57"/><stop offset="0.98" stop-color="#7c2f57" stop-opacity="0"/></linearGradient></defs><title>Food Icons</title><line class="cls-1" x1="216" y1="218" x2="216" y2="234"/><line class="cls-1" x1="224" y1="234" x2="208" y2="234"/><path class="cls-2" d="M231.5,193H200.5l-.7,3.4a6,6,0,0,0,2.1,5.9L216,214l14.2-11.7a6,6,0,0,0,2.1-5.9Z"/><path class="cls-3" d="M232.3,196.4,228,176h-8.4l2.4,20.4a9.1,9.1,0,0,1-1.1,5.9l-6.8,10,2,1.6,14.2-11.7A6,6,0,0,0,232.3,196.4Z"/><path class="cls-4" d="M207.8,202.3a6.7,6.7,0,0,1-1.7-5.9l3.6-20.4H204l-4.3,20.4a6,6,0,0,0,2.1,5.9L216,214l2-1.6Z"/><path class="cls-1" d="M204,176l-4.3,20.4a6,6,0,0,0,2.1,5.9L216,214l14.2-11.7a6,6,0,0,0,2.1-5.9L228,176Z"/><rect class="cls-5" x="205" y="235" width="40" height="6"/><path class="cls-2" d="M198,176.9V162a1,1,0,0,0,1-1v-4a1,1,0,0,0-1-1H188a1,1,0,0,0-1,1v4a1,1,0,0,0,1,1v14.9A15,15,0,0,0,178,191v46a3,3,0,0,0,3,3h24a3,3,0,0,0,3-3V191A15,15,0,0,0,198,176.9Z"/><path class="cls-6" d="M198,176.9V162a1,1,0,0,0,1-1v-4a1,1,0,0,0-1-1h-5v21.9a2,2,0,0,0,1,1.7h.2c2.9,1.7,4.8,6.2,4.8,11.3v48h6a3,3,0,0,0,3-3V191A15,15,0,0,0,198,176.9Z"/><line class="cls-1" x1="198" y1="162" x2="192" y2="162"/><path class="cls-7" d="M178,187v50a3,3,0,0,0,3,3h24a3,3,0,0,0,3-3V187Z"/><path class="cls-8" d="M189,151h8a1,1,0,0,1,1,1v4a0,0,0,0,1,0,0H188a0,0,0,0,1,0,0v-4A1,1,0,0,1,189,151Z"/><path class="cls-4" d="M188,176.9V162a1,1,0,0,1-1-1v-4a1,1,0,0,1,1-1h2v21.9a2,2,0,0,1-1,1.7h-.2c-2.9,1.7-4.8,6.2-4.8,11.3v48h-3a3,3,0,0,1-3-3V191A15,15,0,0,1,188,176.9Z"/><path class="cls-1" d="M180.7,182.4l-.3.5"/><path class="cls-1" d="M178.6,186.9a15,15,0,0,0-.6,4.1v46a3,3,0,0,0,3,3h24a3,3,0,0,0,3-3V191a15,15,0,0,0-10-14.1V162a1,1,0,0,0,1-1v-4a1,1,0,0,0-1-1H188a1,1,0,0,0-1,1v4a1,1,0,0,0,1,1v14.9a15,15,0,0,0-4.2,2.3"/><rect class="cls-8" x="183" y="196" width="20" height="28"/><circle class="cls-9" cx="190" cy="211.5" r="1.5" transform="translate(-93.9 196.3) rotate(-45)"/><circle class="cls-9" cx="193" cy="208.5" r="1.5" transform="translate(-90.9 197.5) rotate(-45)"/><circle class="cls-9" cx="196" cy="211.5" r="1.5" transform="translate(-92.1 200.5) rotate(-45)"/></svg>