<svg id="Layer_1" data-name="Layer 1" xmlns="http://www.w3.org/2000/svg" xmlns:xlink="http://www.w3.org/1999/xlink" viewBox="0 0 400 400"><defs><style>.cls-1{fill:#e2eeec;}.cls-2{fill:#fff;}.cls-3{fill:#b8d1cd;}.cls-4{fill:#8cb5ad;}.cls-5{fill:#c9dfdc;}.cls-6{fill:#f7f9fb;}.cls-7{fill:none;stroke:#7c2f57;stroke-linecap:round;stroke-linejoin:round;stroke-width:2px;}.cls-8{opacity:0.8;fill:url(#linear-gradient);}</style><linearGradient id="linear-gradient" x1="214" y1="247" x2="254" y2="247" gradientUnits="userSpaceOnUse"><stop offset="0" stop-color="#c9dfdc"/><stop offset="0.99" stop-color="#c9dfdc" stop-opacity="0"/></linearGradient></defs><title>Food Icons</title><path class="cls-1" d="M161,189h30a0,0,0,0,1,0,0v54a0,0,0,0,1,0,0H163a2,2,0,0,1-2-2V189A0,0,0,0,1,161,189Z"/><path class="cls-2" d="M161,189h4a0,0,0,0,1,0,0v54a0,0,0,0,1,0,0h-2a2,2,0,0,1-2-2V189A0,0,0,0,1,161,189Z"/><path class="cls-1" d="M175,163h26a2,2,0,0,1,2,2v4a0,0,0,0,1,0,0H173a0,0,0,0,1,0,0v-4A2,2,0,0,1,175,163Z"/><path class="cls-2" d="M179,163h-4a2,2,0,0,0-2,2v4h4v-4A2,2,0,0,1,179,163Z"/><polygon class="cls-3" points="203 169 215 189 191 189 203 169"/><polygon class="cls-4" points="203 169 197 179 215 189 203 169"/><path class="cls-5" d="M191,189h24a0,0,0,0,1,0,0v52a2,2,0,0,1-2,2H191a0,0,0,0,1,0,0V189A0,0,0,0,1,191,189Z"/><polygon class="cls-6" points="203 169 173 169 161 189 191 189 203 169"/><polygon class="cls-2" points="173 169 161 189 165 189 177 169 173 169"/><path class="cls-7" d="M215,189l-12-20v-4a2,2,0,0,0-2-2H175a2,2,0,0,0-2,2v4l-12,20v5"/><path class="cls-7" d="M161,205v36a2,2,0,0,0,2,2h50a2,2,0,0,0,2-2"/><line class="cls-7" x1="191" y1="189" x2="203" y2="169"/><polyline class="cls-7" points="191 238 191 189 167 189"/><polyline class="cls-7" points="197 189 215 189 215 204"/><line class="cls-7" x1="173" y1="169" x2="197" y2="169"/><path class="cls-2" d="M179.5,210.9l-3.5-3.5-3.5,3.5a5,5,0,1,0,7.1,0Z"/><line class="cls-7" x1="161" y1="199" x2="161" y2="200"/><rect class="cls-8" x="214" y="244" width="40" height="6"/><path class="cls-1" d="M203,209v6l3.7,31.4a3,3,0,0,0,3,2.6h16.7a3,3,0,0,0,3-2.6L233,215v-6Z"/><path class="cls-6" d="M204.2,225l2.5,21.4a3,3,0,0,0,3,2.6h16.7a3,3,0,0,0,3-2.6l2.5-21.4Z"/><path class="cls-2" d="M210.7,246.4,207,215v-6h-4v6l3.7,31.4a3,3,0,0,0,3,2.6h4A3,3,0,0,1,210.7,246.4Z"/><path class="cls-7" d="M203,209v6l3.7,31.4a3,3,0,0,0,3,2.6h16.7a3,3,0,0,0,3-2.6L233,215v-6Z"/><line class="cls-7" x1="233" y1="215" x2="209" y2="215"/></svg>