<svg id="Layer_1" data-name="Layer 1" xmlns="http://www.w3.org/2000/svg" xmlns:xlink="http://www.w3.org/1999/xlink" viewBox="0 0 400 400"><defs><style>.cls-1{fill:#ffb56d;}.cls-2{fill:#ffd9b5;}.cls-3{fill:none;stroke:#7c2f57;stroke-linecap:round;stroke-linejoin:round;stroke-width:2px;}.cls-4{fill:url(#linear-gradient);}.cls-5{fill:url(#linear-gradient-2);}.cls-6{fill:#c45555;}.cls-7{fill:#e26464;}</style><linearGradient id="linear-gradient" x1="199.42" y1="237.15" x2="249.42" y2="237.15" gradientUnits="userSpaceOnUse"><stop offset="0" stop-color="#ff9959"/><stop offset="1" stop-color="#ff9959" stop-opacity="0"/></linearGradient><linearGradient id="linear-gradient-2" x1="194.99" y1="191.03" x2="194.99" y2="147.9" xlink:href="#linear-gradient"/></defs><title>Food Icons</title><path class="cls-1" d="M199.4,223.2c11.1,0,21.8-2.6,30-7.4a10,10,0,0,0,3.6-13.7,10,10,0,0,0-13.7-3.6c-5.2,3-12.3,4.7-20,4.7s-14.8-1.7-20-4.7a10,10,0,0,0-10,17.3C177.7,220.5,188.3,223.2,199.4,223.2Z"/><path class="cls-2" d="M203.1,211.1a4,4,0,0,1-.5-8,43.5,43.5,0,0,0,17.5-5.2,4,4,0,0,1,5.8,4.8,4.5,4.5,0,0,1-2.1,2.3,52.1,52.1,0,0,1-20.2,6.1Z"/><path class="cls-3" d="M165.8,202.1a10,10,0,0,0,3.6,13.7c8.3,4.8,18.9,7.4,30,7.4s21.8-2.6,30-7.4a10,10,0,0,0,3.6-13.7,10,10,0,0,0-13.7-3.6c-5.2,3-12.3,4.7-20,4.7s-14.8-1.7-20-4.7a10,10,0,0,0-5-1.3"/><rect class="cls-4" x="199.4" y="234.2" width="50" height="6"/><path class="cls-5" d="M205,167.7h6a3,3,0,0,0,0-6H201a3,3,0,0,1,0-6h21a3,3,0,0,0,0-6H178a3,3,0,0,0,0,6h4a3,3,0,0,1,0,6H168a3,3,0,0,0,0,6h14a3,3,0,0,1,0,6h-4a3,3,0,0,0,0,6h14a3,3,0,0,1,0,6h-5a3,3,0,0,0,0,6h23a3,3,0,0,0,0-6h-2a3,3,0,0,1,0-6h10a3,3,0,0,0,0-6H205a3,3,0,0,1,0-6Z"/><path class="cls-6" d="M199.4,223.1c15.2,0,29.5-4.8,40.4-13.5a7,7,0,1,0-8.8-10.9c-17.4,14-45.8,14-63.2,0a7,7,0,0,0-8.8,10.9C169.9,218.3,184.2,223.1,199.4,223.1Z"/><path class="cls-7" d="M237.8,198.2a3,3,0,0,0-4.2-.5,53.9,53.9,0,0,1-31.3,11.3,3,3,0,0,0-2.8,3h0a3,3,0,0,0,3.1,3c13.1-.6,25.3-5,34.7-12.5a3.2,3.2,0,0,0,1.1-1.5A3,3,0,0,0,237.8,198.2Z"/><ellipse class="cls-7" cx="163" cy="202.1" rx="5.3" ry="4.5" transform="translate(-73.2 94.3) rotate(-26.6)"/><path class="cls-3" d="M199.4,223.1c15.2,0,29.5-4.8,40.4-13.5a7,7,0,1,0-8.8-10.9c-17.4,14-45.8,14-63.2,0a7,7,0,0,0-8.8,10.9"/><path class="cls-1" d="M199.4,239.2c11.1,0,22.2-2.6,31-7.7a12,12,0,0,0-12-20.8c-10.1,5.9-27.9,5.9-38,0a12,12,0,0,0-12,20.8C177.2,236.6,188.3,239.2,199.4,239.2Z"/><path class="cls-2" d="M226.4,211.7a4,4,0,0,0-2.7-1.6c-.9-.1-3.3-.5-4.1,0-5.2,3-10.4,5.4-17.7,5.9a3.9,3.9,0,0,0-3.7,3.9v.3a3.9,3.9,0,0,0,4.2,3.9,52.9,52.9,0,0,0,22.8-6.5,4,4,0,0,0,1.2-5.8Z"/><path class="cls-2" d="M174.4,221.4c3.7-1.9,5.5-5.9,4-9a6.2,6.2,0,0,0-6-3.2,12,12,0,0,0-6.9,3.8,6.1,6.1,0,0,0-.7,6.2C166.4,222.3,170.7,223.3,174.4,221.4Z"/><path class="cls-3" d="M162.5,219.9v.6"/><path class="cls-3" d="M163.3,225.5a11.9,11.9,0,0,0,5.1,5.9c8.8,5.1,19.9,7.7,31,7.7s22.2-2.6,31-7.7a12,12,0,0,0-12-20.8c-10.1,5.9-27.9,5.9-38,0a12,12,0,0,0-16.4,4.4"/></svg>