<svg id="Layer_1" data-name="Layer 1" xmlns="http://www.w3.org/2000/svg" xmlns:xlink="http://www.w3.org/1999/xlink" viewBox="0 0 400 400"><defs><style>.cls-1{opacity:0.8;fill:url(#linear-gradient);}.cls-2{fill:#fff4e6;}.cls-3{fill:#ffc28f;}.cls-4{fill:url(#linear-gradient-2);}.cls-5,.cls-6{fill:#fff;}.cls-5{opacity:0.3;}.cls-6{opacity:0.4;}.cls-7{fill:none;stroke:#7c2f57;stroke-linecap:round;stroke-linejoin:round;stroke-width:2px;}.cls-8{fill:#ffd9b5;}.cls-9{fill:#c9dfdc;}</style><linearGradient id="linear-gradient" x1="213.35" y1="236.22" x2="253.35" y2="236.22" gradientUnits="userSpaceOnUse"><stop offset="0" stop-color="#fe7100"/><stop offset="0.98" stop-color="#fe7100" stop-opacity="0"/></linearGradient><linearGradient id="linear-gradient-2" x1="200" y1="231" x2="200" y2="181" xlink:href="#linear-gradient"/></defs><title>Food Icons</title><rect class="cls-1" x="213.3" y="233.2" width="40" height="6"/><path class="cls-2" d="M220,174.2H180c-14.8,16.4-15.9,42.2-3.3,59.9a9.9,9.9,0,0,0,8,4.1h30.4a9.9,9.9,0,0,0,8-4.1C235.9,216.4,234.8,190.6,220,174.2Z"/><path class="cls-3" d="M184.8,234.2a5.8,5.8,0,0,1-4.8-2.4c-11.3-15.8-10.5-38.8,1.8-53.6h36.3c12.3,14.8,13.1,37.8,1.8,53.6a5.9,5.9,0,0,1-4.8,2.4Z"/><path class="cls-4" d="M226.1,193.4H220a5.4,5.4,0,0,1-4.2-1.9,3,3,0,0,0-4.7,0,5.4,5.4,0,0,1-4.2,1.9H194.8a5.6,5.6,0,0,1-4.5-2.3,4,4,0,0,0-6.5,0,5.6,5.6,0,0,1-4.5,2.3h-5.3c-3.7,12.8-1.8,27.4,6.1,38.5a5.8,5.8,0,0,0,4.8,2.4h30.4a5.9,5.9,0,0,0,4.8-2.4C227.9,220.8,229.9,206.2,226.1,193.4Z"/><path class="cls-5" d="M186,234.2h28A22.1,22.1,0,0,0,186,234.2Z"/><path class="cls-6" d="M194.7,234.2c-12.7-17.8-11.6-43.5,3.3-59.9H180c-14.8,16.4-15.9,42.2-3.3,59.9a9.9,9.9,0,0,0,8,4.1h18A9.9,9.9,0,0,1,194.7,234.2Z"/><path class="cls-7" d="M170.3,191.4l-.3,1"/><path class="cls-7" d="M168.5,199a48.8,48.8,0,0,0,8.2,35.2,9.9,9.9,0,0,0,8,4.1h30.4a9.9,9.9,0,0,0,8-4.1c12.7-17.8,11.6-43.5-3.3-59.9H180a45.4,45.4,0,0,0-7.5,11.3"/><path class="cls-8" d="M226.2,176.2a4,4,0,0,0-3.2-1.9v-5a2,2,0,0,0,2-2v-3a5,5,0,0,0-5-5H180a5,5,0,0,0-5,5v3a2,2,0,0,0,2,2v5a4,4,0,0,0-3.2,1.9l-4.8,8.1a7.3,7.3,0,0,0,8.9,0,7.3,7.3,0,0,1,8.9,0,7.3,7.3,0,0,0,8.9,0,7.3,7.3,0,0,1,8.9,0,7.3,7.3,0,0,0,8.9,0,7.3,7.3,0,0,1,8.9,0,7.3,7.3,0,0,0,8.9,0Z"/><rect class="cls-9" x="177" y="169.2" width="46" height="5"/><path class="cls-7" d="M173.2,177.2l-4.2,7a7.3,7.3,0,0,0,8.9,0,7.3,7.3,0,0,1,8.9,0,7.3,7.3,0,0,0,8.9,0,7.3,7.3,0,0,1,8.9,0,7.3,7.3,0,0,0,8.9,0,7.3,7.3,0,0,1,8.9,0,7.3,7.3,0,0,0,8.9,0l-4.8-8.1a4,4,0,0,0-3.2-1.9v-5a2,2,0,0,0,2-2v-3a5,5,0,0,0-5-5H180a5,5,0,0,0-5,5v3a2,2,0,0,0,2,2v5"/><line class="cls-7" x1="217" y1="169.2" x2="177" y2="169.2"/><line class="cls-7" x1="223" y1="174.2" x2="183" y2="174.2"/><circle class="cls-5" cx="183.2" cy="202.6" r="1.4"/><circle class="cls-5" cx="213.3" cy="209.7" r="1.4"/><circle class="cls-5" cx="203.7" cy="222.4" r="1.4"/><circle class="cls-5" cx="195.7" cy="217.9" r="1.4"/></svg>