<svg id="Layer_1" data-name="Layer 1" xmlns="http://www.w3.org/2000/svg" xmlns:xlink="http://www.w3.org/1999/xlink" viewBox="0 0 400 400"><defs><style>.cls-1{opacity:0.8;fill:url(#linear-gradient);}.cls-2{fill:#f28840;}.cls-3{fill:#ffb56d;}.cls-4,.cls-8,.cls-9{fill:#fff;}.cls-4{opacity:0.4;}.cls-10,.cls-11,.cls-12,.cls-13,.cls-14,.cls-15,.cls-16,.cls-5{fill:none;}.cls-5,.cls-6{stroke:#7c2f57;}.cls-10,.cls-11,.cls-12,.cls-13,.cls-14,.cls-15,.cls-16,.cls-5,.cls-6{stroke-linecap:round;stroke-linejoin:round;stroke-width:2px;}.cls-6{fill:#ffc28f;}.cls-7{fill:#f7e5c1;}.cls-9{opacity:0.5;}.cls-10{stroke:#ffc28f;}.cls-11{stroke:#fe7100;}.cls-12{stroke:#b1e7ff;}.cls-13{stroke:#00acff;}.cls-14{stroke:#f93a26;}.cls-15{stroke:#ff9695;}.cls-16{stroke:#76ddac;}</style><linearGradient id="linear-gradient" x1="199.75" y1="241.5" x2="239.75" y2="241.5" gradientUnits="userSpaceOnUse"><stop offset="0" stop-color="#fe7100"/><stop offset="0.98" stop-color="#fe7100" stop-opacity="0"/></linearGradient></defs><title>Food Icons</title><rect class="cls-1" x="199.7" y="238.5" width="40" height="6"/><path class="cls-2" d="M183.1,203.5l1.7,17.3a3,3,0,0,0,3,2.7h1.3l1.7,17.3a3,3,0,0,0,3,2.7h10.6a3,3,0,0,0,3-2.7l1.7-17.3h1.3a3,3,0,0,0,3-2.7l1.7-17.3Z"/><path class="cls-3" d="M184.4,216.1l.3,3.1,4.3,4.3h.1v.2l18,18a3,3,0,0,0,.2-.9l.2-1.6Z"/><polygon class="cls-3" points="190 232.2 190.3 235.3 198.5 243.5 201.3 243.5 190 232.2"/><path class="cls-3" d="M192.8,203.5H190l20,20h.4a3,3,0,0,0,1.8-.6Z"/><polygon class="cls-3" points="183.2 204.4 183.5 207.5 208.2 232.3 208.5 229.7 183.2 204.4"/><polygon class="cls-3" points="213.8 203.5 211 203.5 214.7 207.3 215 204.7 213.8 203.5"/><polygon class="cls-3" points="203.3 203.5 200.5 203.5 213.8 216.8 214.1 214.2 203.3 203.5"/><path class="cls-4" d="M196.9,240.8l-1.7-17.3h-1.3a3,3,0,0,1-3-2.7l-1.7-17.3h-6l1.7,17.3a3,3,0,0,0,3,2.7h1.3l1.7,17.3a3,3,0,0,0,3,2.7h6A3,3,0,0,1,196.9,240.8Z"/><path class="cls-5" d="M183.1,203.5l1.7,17.3a3,3,0,0,0,3,2.7h1.3l1.7,17.3a3,3,0,0,0,3,2.7h10.6a3,3,0,0,0,3-2.7l1.7-17.3h1.3a3,3,0,0,0,3-2.7l1.7-17.3Z"/><line class="cls-6" x1="209.1" y1="223.5" x2="198" y2="223.5"/><line class="cls-6" x1="189.1" y1="223.5" x2="192.3" y2="223.5"/><path class="cls-7" d="M222.8,192.4a25,25,0,1,0-47.5-.1,4.2,4.2,0,0,1-.5,3.6,4.9,4.9,0,0,0-.8,3.1,5.1,5.1,0,0,0,5.2,4.6h6.2a3,3,0,0,1,3,3v.8a4.1,4.1,0,0,0,3.6,4.2,4,4,0,0,0,4.4-4v-1a3,3,0,0,1,3-3h0a3,3,0,0,1,3,3v4.8a4.1,4.1,0,0,0,3.6,4.2,4,4,0,0,0,4.4-4v-5a3,3,0,0,1,3-3h5.4a5.1,5.1,0,0,0,5.2-4.6,4.9,4.9,0,0,0-.7-3A4.1,4.1,0,0,1,222.8,192.4Z"/><path class="cls-8" d="M180.1,198.9a4.9,4.9,0,0,1,.8-3.1,4.2,4.2,0,0,0,.5-3.6,25,25,0,0,1,20.7-32.6h-.3a25,25,0,0,0-26.5,32.6,4.2,4.2,0,0,1-.5,3.6,4.9,4.9,0,0,0-.8,3.1,5.1,5.1,0,0,0,5.2,4.6h6A5.1,5.1,0,0,1,180.1,198.9Z"/><ellipse class="cls-9" cx="195" cy="173.2" rx="13.9" ry="11.7"/><path class="cls-5" d="M175.8,175.4a25,25,0,0,0-.5,16.9,4.2,4.2,0,0,1-.5,3.6,4.9,4.9,0,0,0-.8,3.1,5.1,5.1,0,0,0,5.2,4.6h6.2a3,3,0,0,1,3,3v.8a4.1,4.1,0,0,0,3.6,4.2,4,4,0,0,0,4.4-4v-1a3,3,0,0,1,3-3h0a3,3,0,0,1,3,3v4.8a4.1,4.1,0,0,0,3.6,4.2,4,4,0,0,0,4.4-4v-5a3,3,0,0,1,3-3h5.4a5.1,5.1,0,0,0,5.2-4.6,4.9,4.9,0,0,0-.7-3,4.1,4.1,0,0,1-.5-3.5,25,25,0,0,0-40.4-26.5"/><path class="cls-5" d="M179,169.7l-.6.9"/><line class="cls-10" x1="198.5" y1="171.4" x2="196" y2="171.2"/><line class="cls-11" x1="206.6" y1="167.2" x2="205.5" y2="169.5"/><line class="cls-12" x1="214.7" y1="176.1" x2="214.5" y2="178.6"/><line class="cls-13" x1="199.7" y1="189.3" x2="198" y2="191.2"/><line class="cls-14" x1="204.5" y1="182.4" x2="202.7" y2="180.5"/><line class="cls-15" x1="186.4" y1="171.1" x2="188.2" y2="172.9"/><line class="cls-16" x1="183.9" y1="183.5" x2="181.4" y2="182.9"/></svg>