<svg id="Layer_1" data-name="Layer 1" xmlns="http://www.w3.org/2000/svg" xmlns:xlink="http://www.w3.org/1999/xlink" viewBox="0 0 400 400"><defs><style>.cls-1,.cls-9{fill:#fff;}.cls-2{fill:none;stroke:#7c2f57;stroke-linecap:round;stroke-linejoin:round;stroke-width:2px;}.cls-3{fill:#ff9323;}.cls-4{fill:#b1db95;}.cls-5{fill:#83ba60;}.cls-6{opacity:0.8;fill:url(#linear-gradient);}.cls-7{fill:#ffb56d;}.cls-8{fill:#ffd9b5;}.cls-9{opacity:0.3;}</style><linearGradient id="linear-gradient" x1="217.58" y1="235" x2="257.58" y2="235" gradientUnits="userSpaceOnUse"><stop offset="0" stop-color="#fe7100"/><stop offset="0.98" stop-color="#fe7100" stop-opacity="0"/></linearGradient></defs><title>Food Icons</title><path class="cls-1" d="M229.6,175.3c-17.3,0-21.4-14.6-34.5-17.3-16.5-3.5-25.1,10.7-25.7,25s-11.5,17.8-10.4,28.3,16,12.7,25.7,21.3l35.7-1.3C232.1,217.2,229.6,175.3,229.6,175.3Z"/><path class="cls-2" d="M159.7,205.2l-.2.7"/><path class="cls-2" d="M159.1,212.6c2.1,10.2,16.2,11.7,25.5,20l35.7-1.3c11.8-14.2,9.3-56,9.3-56-17.3,0-21.4-14.6-34.5-17.3-16.5-3.5-25.1,10.7-25.7,25-.4,8-3.9,12.6-6.8,17"/><circle class="cls-3" cx="173" cy="209.4" r="7.8"/><circle class="cls-4" cx="231.6" cy="204" r="10"/><circle class="cls-5" cx="231.6" cy="204" r="6"/><circle class="cls-4" cx="231.6" cy="204" r="3"/><circle class="cls-2" cx="231.6" cy="204" r="10"/><circle class="cls-4" cx="231.6" cy="218.5" r="10"/><circle class="cls-5" cx="231.6" cy="218.5" r="6"/><circle class="cls-4" cx="231.6" cy="218.5" r="3"/><circle class="cls-2" cx="231.6" cy="218.5" r="10"/><rect class="cls-6" x="217.6" y="232" width="40" height="6"/><path class="cls-7" d="M177,237a6,6,0,0,1-6-6V192.7c-4.9-3.8-6-7.8-6-10.7,0-10.8,15.9-19,37-19s37,8.2,37,19c0,2.8-1.1,6.9-6,10.7V231a6,6,0,0,1-6,6Z"/><path class="cls-8" d="M177,232a1,1,0,0,1-1-1V190.2l-1.9-1.5c-2.7-2.1-4.1-4.4-4.1-6.7,0-8.4,16.5-14,32-14s32,5.6,32,14c0,2.4-1.4,4.6-4.1,6.7l-1.9,1.5V231a1,1,0,0,1-1,1Z"/><circle class="cls-7" cx="214.8" cy="180.5" r="1.5"/><circle class="cls-7" cx="207.8" cy="199" r="1.5"/><circle class="cls-7" cx="222.8" cy="192" r="1.5"/><circle class="cls-7" cx="181.3" cy="192.5" r="1.5"/><circle class="cls-7" cx="192.3" cy="199.2" r="1.5"/><circle class="cls-7" cx="218.3" cy="212.2" r="1.5"/><circle class="cls-7" cx="204.6" cy="180.7" r="1.5"/><circle class="cls-7" cx="217.6" cy="221.9" r="1.5"/><circle class="cls-7" cx="198.6" cy="216.9" r="1.5"/><circle class="cls-7" cx="205.9" cy="224.4" r="1.5"/><circle class="cls-7" cx="181.8" cy="220" r="1.5"/><circle class="cls-7" cx="184" cy="182" r="1.5"/><path class="cls-9" d="M206.4,163.1H202c-21.1,0-37,8.2-37,19,0,2.8,1.1,6.9,6,10.7V231a6,6,0,0,0,6,6h10.2Z"/><path class="cls-2" d="M177,237a6,6,0,0,1-6-6V192.7c-4.9-3.8-6-7.8-6-10.7,0-10.8,15.9-19,37-19s37,8.2,37,19c0,2.8-1.1,6.9-6,10.7V231a6,6,0,0,1-6,6Z"/></svg>