<svg id="Layer_1" data-name="Layer 1" xmlns="http://www.w3.org/2000/svg" xmlns:xlink="http://www.w3.org/1999/xlink" viewBox="0 0 400 400"><defs><style>.cls-1{opacity:0.8;fill:url(#linear-gradient);}.cls-2{fill:#ffd062;}.cls-10,.cls-3,.cls-4{fill:none;}.cls-3{stroke:#ffeaca;}.cls-10,.cls-11,.cls-3,.cls-4{stroke-linecap:round;stroke-linejoin:round;stroke-width:2px;}.cls-10,.cls-11,.cls-4{stroke:#7c2f57;}.cls-4{fill-rule:evenodd;}.cls-12,.cls-5{fill:#f7f9fb;}.cls-5{opacity:0.7;}.cls-6{fill:#ff9695;}.cls-7{fill:#ff5c6c;}.cls-8{fill:#fd025d;}.cls-11,.cls-9{fill:#fff;}.cls-13{fill:#ff5a7a;}</style><linearGradient id="linear-gradient" x1="213" y1="238" x2="253" y2="238" gradientUnits="userSpaceOnUse"><stop offset="0" stop-color="#fd025d"/><stop offset="0.98" stop-color="#fd025d" stop-opacity="0"/></linearGradient></defs><title>Food Icons</title><rect class="cls-1" x="213" y="235" width="40" height="6"/><circle class="cls-2" cx="216" cy="170" r="15"/><line class="cls-3" x1="216" y1="155" x2="216" y2="185"/><line class="cls-3" x1="231" y1="170" x2="201" y2="170"/><line class="cls-3" x1="226.6" y1="159.4" x2="205.4" y2="180.6"/><line class="cls-3" x1="226.6" y1="180.6" x2="205.4" y2="159.4"/><path class="cls-4" d="M202,164.6A15,15,0,1,1,216,185"/><path class="cls-5" d="M216,184V172a2,2,0,0,0-2-2H182a2,2,0,0,0-2,2v12l-2.5,6.6a8,8,0,0,0-.5,2.8v37.1a8,8,0,0,0,.5,2.8l2,5.3a2,2,0,0,0,1.9,1.3h33.2a2,2,0,0,0,1.9-1.3l2-5.3a8,8,0,0,0,.5-2.8V193.5a8,8,0,0,0-.5-2.8Z"/><polygon class="cls-6" points="177 192 177 232 180 240 216 240 219 232 219 192 177 192"/><polygon class="cls-7" points="177 212 177 232 180 240 216 240 219 232 219 212 177 212"/><polygon class="cls-8" points="177 232 180 240 216 240 219 232 177 232"/><path class="cls-9" d="M185.5,238.7l-2-5.3a8,8,0,0,1-.5-2.8V193.5a8,8,0,0,1,.5-2.8L186,184V172a2,2,0,0,1,2-2h-6a2,2,0,0,0-2,2v12l-2.5,6.6a8,8,0,0,0-.5,2.8v37.1a8,8,0,0,0,.5,2.8l2,5.3a2,2,0,0,0,1.9,1.3h6A2,2,0,0,1,185.5,238.7Z"/><path class="cls-10" d="M216,172a2,2,0,0,0-2-2H182a2,2,0,0,0-2,2v3"/><line class="cls-11" x1="178" y1="179" x2="212" y2="179"/><line class="cls-11" x1="184" y1="175" x2="218" y2="175"/><path class="cls-10" d="M177,205.5v25a8,8,0,0,0,.5,2.8l2,5.3a2,2,0,0,0,1.9,1.3h33.2a2,2,0,0,0,1.9-1.3l2-5.3a8,8,0,0,0,.5-2.8V193.5a8,8,0,0,0-.5-2.8L216,184v-9"/><line class="cls-10" x1="177" y1="199.5" x2="177" y2="200.5"/><path class="cls-10" d="M180,179v5l-2.5,6.6a8,8,0,0,0-.5,2.8v1"/><rect class="cls-12" x="186" y="140" width="6" height="30"/><polygon class="cls-13" points="186 160.4 186 166 192 160 192 154.4 186 160.4"/><polygon class="cls-13" points="192 170 192 164.4 186.4 170 192 170"/><polygon class="cls-13" points="186.4 140 186 140.4 186 146 192 140 192 140 186.4 140"/><polygon class="cls-13" points="186 150.4 186 156 192 150 192 144.4 186 150.4"/><rect class="cls-10" x="186" y="140" width="6" height="30"/></svg>