<svg id="Layer_1" data-name="Layer 1" xmlns="http://www.w3.org/2000/svg" xmlns:xlink="http://www.w3.org/1999/xlink" viewBox="0 0 400 400"><defs><style>.cls-1,.cls-15{fill:#f7f9fb;}.cls-2{fill:#ff5c6c;}.cls-12,.cls-13,.cls-3{fill:none;}.cls-13,.cls-14,.cls-15,.cls-16,.cls-3{stroke:#7c2f57;}.cls-12,.cls-13,.cls-14,.cls-15,.cls-16,.cls-3{stroke-linecap:round;stroke-linejoin:round;stroke-width:2px;}.cls-10,.cls-4,.cls-9{opacity:0.8;}.cls-4{fill:url(#linear-gradient);}.cls-14,.cls-5{fill:#8e4975;}.cls-6,.cls-8{fill:#7c2f57;}.cls-7{fill:#fff;}.cls-8{opacity:0.2;}.cls-9{fill:url(#linear-gradient-2);}.cls-10{fill:url(#linear-gradient-3);}.cls-11{fill:#ffd062;}.cls-11,.cls-13{fill-rule:evenodd;}.cls-12{stroke:#ffeaca;}.cls-16{fill:#ffd9b5;}.cls-17{fill:#fe7100;}</style><linearGradient id="linear-gradient" x1="238" y1="232" x2="278" y2="232" gradientUnits="userSpaceOnUse"><stop offset="0" stop-color="#7c2f57"/><stop offset="0.98" stop-color="#7c2f57" stop-opacity="0"/></linearGradient><linearGradient id="linear-gradient-2" x1="158" y1="238" x2="198" y2="238" gradientUnits="userSpaceOnUse"><stop offset="0" stop-color="#fe7100"/><stop offset="0.98" stop-color="#fe7100" stop-opacity="0"/></linearGradient><linearGradient id="linear-gradient-3" x1="225" x2="265" xlink:href="#linear-gradient-2"/></defs><title>Food Icons</title><path class="cls-1" d="M156,210h26a0,0,0,0,1,0,0v6a4,4,0,0,1-4,4H160a4,4,0,0,1-4-4v-6A0,0,0,0,1,156,210Z"/><path class="cls-2" d="M153,208l3,2h26l3-2C176.2,197.3,161.8,197.3,153,208Z"/><path class="cls-3" d="M153,208l3,2v6a4,4,0,0,0,4,4h18a4,4,0,0,0,4-4v-6l3-2C176.2,197.3,161.8,197.3,153,208Z"/><rect class="cls-4" x="238" y="229" width="40" height="6"/><path class="cls-1" d="M247.3,180a40.8,40.8,0,0,1,2-12H230.7a40.8,40.8,0,0,1,2,12c0,5.9-1.6,11.8-4.8,20s-4.8,14.1-4.8,20v11a3,3,0,0,0,3,3h28a3,3,0,0,0,3-3V220c0-5.9-1.6-11.8-4.8-20S247.3,185.9,247.3,180Z"/><path class="cls-5" d="M227.8,200c-3.2,8.2-4.8,14.1-4.8,20v11a3,3,0,0,0,3,3h28a3,3,0,0,0,3-3V220c0-5.9-1.6-11.8-4.8-20-1.1-2.9-2.1-5.6-2.8-8H230.7C229.9,194.4,229,197.1,227.8,200Z"/><path class="cls-2" d="M232.4,176h15.2a47.2,47.2,0,0,1,1.8-8H230.7A47.2,47.2,0,0,1,232.4,176Z"/><path class="cls-6" d="M240,171a3,3,0,0,0,3-3h-6A3,3,0,0,0,240,171Z"/><path class="cls-7" d="M227,231V220c0-5.9,1.6-11.8,4.8-20s4.8-14.1,4.8-20a40.8,40.8,0,0,0-2-12h-4a40.8,40.8,0,0,1,2,12c0,5.9-1.6,11.8-4.8,20s-4.8,14.1-4.8,20v11a3,3,0,0,0,3,3h4A3,3,0,0,1,227,231Z"/><path class="cls-8" d="M249,231V220c0-5.9-1.6-11.8-4.8-20s-4.8-14.1-4.8-20a40.8,40.8,0,0,1,2-12h8a40.8,40.8,0,0,0-2,12c0,5.9,1.6,11.8,4.8,20s4.8,14.1,4.8,20v11a3,3,0,0,1-3,3h-8A3,3,0,0,0,249,231Z"/><path class="cls-3" d="M247.3,180a40.8,40.8,0,0,1,2-12H230.7a40.8,40.8,0,0,1,2,12c0,5.9-1.6,11.8-4.8,20s-4.8,14.1-4.8,20v11a3,3,0,0,0,3,3h28a3,3,0,0,0,3-3V220c0-5.9-1.6-11.8-4.8-20S247.3,185.9,247.3,180Z"/><line class="cls-3" x1="247.6" y1="176" x2="236.4" y2="176"/><rect class="cls-9" x="158" y="235" width="40" height="6"/><rect class="cls-10" x="225" y="235" width="40" height="6"/><path class="cls-11" d="M235,205H205a15,15,0,0,0,30,0Z"/><line class="cls-12" x1="235" y1="205" x2="205" y2="205"/><line class="cls-12" x1="220" y1="220" x2="220" y2="205"/><line class="cls-12" x1="230.6" y1="215.6" x2="220" y2="205"/><line class="cls-12" x1="209.4" y1="215.6" x2="220" y2="205"/><path class="cls-13" d="M235,205a15,15,0,0,1-30,0"/><path class="cls-14" d="M184,220c-2.8,0-5-4.5-5-10s2.2-10,5-10h8v20Z"/><ellipse class="cls-15" cx="192" cy="210" rx="5" ry="10"/><ellipse class="cls-2" cx="192" cy="210" rx="1.5" ry="3"/><path class="cls-14" d="M199,220c-2.8,0-5-4.5-5-10s2.2-10,5-10h8v20Z"/><ellipse class="cls-15" cx="207" cy="210" rx="5" ry="10"/><ellipse class="cls-2" cx="207" cy="210" rx="1.5" ry="3"/><path class="cls-16" d="M140,222v6a2,2,0,0,0,2,2h8v8a2,2,0,0,0,2,2h6a2,2,0,0,0,2-2v-8h60v8a2,2,0,0,0,2,2h6a2,2,0,0,0,2-2v-8h8a2,2,0,0,0,2-2v-6a2,2,0,0,0-2-2H142A2,2,0,0,0,140,222Z"/><line class="cls-3" x1="160" y1="230" x2="156" y2="230"/><path class="cls-1" d="M144,210h26a0,0,0,0,1,0,0v6a4,4,0,0,1-4,4H148a4,4,0,0,1-4-4v-6A0,0,0,0,1,144,210Z"/><path class="cls-17" d="M141,208l3,2h26l3-2C164.2,197.3,149.8,197.3,141,208Z"/><path class="cls-3" d="M144,216a4,4,0,0,0,4,4h18a4,4,0,0,0,4-4v-6l3-2c-8.8-10.7-23.2-10.7-32,0l3,2"/><line class="cls-3" x1="170" y1="210" x2="150" y2="210"/><line class="cls-3" x1="230" y1="230" x2="226" y2="230"/></svg>