<svg id="Layer_1" data-name="Layer 1" xmlns="http://www.w3.org/2000/svg" xmlns:xlink="http://www.w3.org/1999/xlink" viewBox="0 0 400 400"><defs><style>.cls-1,.cls-2{opacity:0.8;}.cls-1{fill:url(#linear-gradient);}.cls-2{fill:url(#linear-gradient-2);}.cls-3{fill:#a84747;}.cls-4,.cls-6{fill:#933b3b;}.cls-5{fill:#d35b5b;}.cls-6{opacity:0.3;}.cls-7{fill:none;}.cls-7,.cls-9{stroke:#7c2f57;stroke-linecap:round;stroke-linejoin:round;stroke-width:2px;}.cls-8{fill:#ff9695;}.cls-9{fill:#ffd9b5;}.cls-10{fill:#ffb56d;}.cls-11{fill:#f28840;}.cls-12{fill:#fff;}</style><linearGradient id="linear-gradient" x1="178.63" y1="240.55" x2="248.63" y2="240.55" gradientUnits="userSpaceOnUse"><stop offset="0" stop-color="#f28840"/><stop offset="0.97" stop-color="#f28840" stop-opacity="0"/></linearGradient><linearGradient id="linear-gradient-2" x1="215.63" y1="227.55" x2="255.63" y2="227.55" gradientUnits="userSpaceOnUse"><stop offset="0" stop-color="#d35b5b"/><stop offset="0.97" stop-color="#d35b5b" stop-opacity="0"/></linearGradient></defs><title>Food Icons</title><rect class="cls-1" x="178.6" y="237.5" width="70" height="6"/><rect class="cls-2" x="215.6" y="224.5" width="40" height="6"/><path class="cls-3" d="M206.9,184.3c-11.7,11.7-13.3,29.1-3.5,38.9s27.2,8.2,38.9-3.5"/><path class="cls-4" d="M204.3,216.1a22.6,22.6,0,0,1-6.4-16.7c-2.3,8.7-.6,17.7,5.4,23.7,9.8,9.8,27.2,8.2,38.9-3.5l-3.3-3.3C227.5,224.5,212.9,224.8,204.3,216.1Z"/><path class="cls-5" d="M233.3,221.9c-6.3,0-13.5-3.5-19.4-9.4a32.1,32.1,0,0,1-8.9-15.3c-1.1-5.1-.2-9.5,2.6-12.3a11.2,11.2,0,0,1,8.2-3c6.3,0,13.5,3.5,19.4,9.4,9.4,9.4,12.2,21.7,6.4,27.6a11.2,11.2,0,0,1-8.2,3Z"/><path class="cls-6" d="M208.5,182.9c-4.4,6.7-1.3,18.4,7.7,27.3a38.8,38.8,0,0,0,3.5,3.1l1.7-1.4c7.5-7.5,6-21.1-3.1-30.8A14.1,14.1,0,0,0,208.5,182.9Z"/><path class="cls-7" d="M235.8,190.6c-9.8-9.8-22.7-12.6-29-6.4-11.7,11.7-13.3,29.1-3.5,38.9s27.2,8.2,38.9-3.5C248.5,213.4,245.6,200.4,235.8,190.6Z"/><ellipse class="cls-5" cx="213.9" cy="190.9" rx="1.7" ry="3" transform="translate(-72.3 207.2) rotate(-45)"/><ellipse class="cls-5" cx="216.4" cy="202.4" rx="1.7" ry="3" transform="translate(-79.7 212.3) rotate(-45)"/><ellipse class="cls-5" cx="225.2" cy="199.4" rx="1.7" ry="3" transform="translate(-75 217.6) rotate(-45)"/><ellipse class="cls-8" cx="235.8" cy="204.7" rx="1.7" ry="3" transform="translate(-75.7 226.7) rotate(-45)"/><ellipse class="cls-8" cx="232.5" cy="214.4" rx="1.7" ry="3" transform="translate(-83.5 227.2) rotate(-45)"/><ellipse class="cls-8" cx="230.7" cy="193.7" rx="1.7" ry="3" transform="translate(-69.4 219.9) rotate(-45)"/><path class="cls-9" d="M223.6,236.3l-12.7-2.9,2.3-9.7,12.7,2.9a5,5,0,0,1,6-3.7,5.1,5.1,0,0,1,3.7,6,5,5,0,0,1-2.2,3.1,2,2,0,0,0-.7,2.8,5,5,0,0,1,.6,3.8,5.1,5.1,0,0,1-6,3.7A5,5,0,0,1,223.6,236.3Z"/><path class="cls-10" d="M156.5,215.6a22,22,0,0,1,40.6-5.8,14.3,14.3,0,0,0,9.2,7.1l3.9.9a4,4,0,0,1,3,4.8l-2.7,11.7a4,4,0,0,1-4.8,3l-3.9-.9a14.3,14.3,0,0,0-11.4,2.3,22,22,0,0,1-33.9-23.1Z"/><path class="cls-11" d="M156.5,215.6l.2-.7A20,20,0,0,0,188,229.5a16.4,16.4,0,0,1,13-2.6l3.9.9a2,2,0,0,0,2.4-1.5l2-8.8,1,.2a4,4,0,0,1,3,4.8l-2.7,11.7a4,4,0,0,1-4.8,3l-3.9-.9a14.3,14.3,0,0,0-11.4,2.3,22,22,0,0,1-33.9-23.1Z"/><path class="cls-12" d="M186.9,204.1a22,22,0,0,0-24.1,32.4,22,22,0,1,1,34.2-27A21.9,21.9,0,0,0,186.9,204.1Z"/><path class="cls-7" d="M167.3,201.3l.6-.3"/><path class="cls-7" d="M172.4,199.3a22,22,0,0,1,24.8,10.5,14.3,14.3,0,0,0,9.2,7.1l3.9.9a4,4,0,0,1,3,4.8l-2.7,11.7a4,4,0,0,1-4.8,3l-3.9-.9a14.3,14.3,0,0,0-11.4,2.3,22,22,0,0,1-27.3-34.4"/><circle class="cls-11" cx="182.9" cy="224.2" r="1.5" transform="translate(-76.9 351.5) rotate(-76.9)"/><circle class="cls-11" cx="173.7" cy="223.1" r="1.5" transform="translate(-82.9 341.7) rotate(-76.9)"/><circle class="cls-11" cx="180.3" cy="211.7" r="1.5" transform="translate(-66.7 339.3) rotate(-76.9)"/></svg>