<svg id="Layer_1" data-name="Layer 1" xmlns="http://www.w3.org/2000/svg" xmlns:xlink="http://www.w3.org/1999/xlink" viewBox="0 0 400 400"><defs><style>.cls-1{fill:#f93a26;}.cls-1,.cls-3,.cls-7,.cls-8{stroke:#7c2f57;stroke-linecap:round;stroke-linejoin:round;stroke-width:2px;}.cls-2{fill:url(#linear-gradient);}.cls-3{fill:#a84747;}.cls-4{fill:#d35b5b;}.cls-5{fill:#ffb56d;}.cls-6{fill:#ffd9b5;}.cls-7{fill:none;}.cls-8{fill:#f9ebb4;}.cls-9{fill:#fff;}.cls-10{fill:#9bd178;}</style><linearGradient id="linear-gradient" x1="229.95" y1="239" x2="269.95" y2="239" gradientUnits="userSpaceOnUse"><stop offset="0" stop-color="#ff9959"/><stop offset="1" stop-color="#ff9959" stop-opacity="0"/></linearGradient></defs><title>Food Icons</title><rect class="cls-1" x="200" y="201" width="32" height="7"/><rect class="cls-2" x="229.9" y="236" width="40" height="6"/><rect class="cls-3" x="159.9" y="215" width="80" height="12" rx="6" ry="6"/><rect class="cls-4" x="163.9" y="218" width="10" height="4" rx="2" ry="2"/><rect class="cls-4" x="177.9" y="218" width="4" height="4" rx="2" ry="2"/><path class="cls-5" d="M161.9,229v6a6,6,0,0,0,6,6h64a6,6,0,0,0,6-6v-6a2,2,0,0,0-2-2h-72A2,2,0,0,0,161.9,229Z"/><rect class="cls-6" x="161.9" y="227" width="58" height="6" rx="2" ry="2"/><path class="cls-7" d="M161.9,229v6a6,6,0,0,0,6,6h64a6,6,0,0,0,6-6v-6a2,2,0,0,0-2-2h-72A2,2,0,0,0,161.9,229Z"/><path class="cls-8" d="M164.9,211.5h0a3.5,3.5,0,0,0,3.5,3.5h19.2a8,8,0,0,1,5.7,2.3l10.2,10.2a2,2,0,0,0,2.8,0l10.2-10.2a8,8,0,0,1,5.7-2.3h9.2a3.5,3.5,0,0,0,3.5-3.5h0a3.5,3.5,0,0,0-3.5-3.5h-63A3.5,3.5,0,0,0,164.9,211.5Z"/><rect class="cls-1" x="168" y="201" width="32" height="7"/><rect class="cls-9" x="169" y="202" width="12" height="5"/><rect class="cls-9" x="201" y="202" width="12" height="5"/><path class="cls-5" d="M199.9,160c-21.3,0-38.7,14.5-39.9,32.9a2,2,0,0,0,2,2.1h75.8a2,2,0,0,0,2-2.1C238.6,174.5,221.2,160,199.9,160Z"/><path class="cls-6" d="M161.3,186h54.2a4,4,0,0,0,3.9-4.7c-2.3-10.8-12.3-19.2-24.8-21C178.5,162.2,165.4,172.5,161.3,186Z"/><path class="cls-10" d="M233,195H167l-6,7a5,5,0,0,0,6,0,5,5,0,0,1,6,0,5,5,0,0,0,6,0,5,5,0,0,1,6,0,5,5,0,0,0,6,0,5,5,0,0,1,6,0,5,5,0,0,0,6,0,5,5,0,0,1,6,0,5,5,0,0,0,6,0,5,5,0,0,1,6,0,5,5,0,0,0,6,0,5,5,0,0,1,6,0,5,5,0,0,0,6,0Z"/><path class="cls-7" d="M179,202a5,5,0,0,1,6,0,5,5,0,0,0,6,0,5,5,0,0,1,6,0,5,5,0,0,0,6,0,5,5,0,0,1,6,0,5,5,0,0,0,6,0,5,5,0,0,1,6,0,5,5,0,0,0,6,0,5,5,0,0,1,6,0,5,5,0,0,0,6,0l-6-7H167l-6,7a5,5,0,0,0,6,0,5,5,0,0,1,6,0"/><path class="cls-7" d="M176.7,166.5c-9.5,6-15.9,15.5-16.7,26.3a2,2,0,0,0,2,2.1h75.8a2,2,0,0,0,2-2.1c-1.3-18.3-18.7-32.9-39.9-32.9a45.5,45.5,0,0,0-9.7,1"/><path class="cls-7" d="M184.3,162.8l-1.5.6"/><line class="cls-7" x1="174" y1="184.5" x2="175.2" y2="185.8"/><line class="cls-7" x1="191.7" y1="179.3" x2="189.7" y2="180"/><line class="cls-7" x1="209.5" y1="179.3" x2="210.7" y2="180.7"/><line class="cls-7" x1="215.5" y1="169" x2="213.5" y2="170"/><line class="cls-7" x1="195.8" y1="166.8" x2="197.8" y2="168"/><line class="cls-7" x1="230" y1="186.2" x2="228.2" y2="187.5"/><line class="cls-7" x1="200.3" y1="188.8" x2="202.3" y2="188.8"/></svg>